<svg width="429" height="2006" viewBox="0 0 429 2006" fill="none" xmlns="http://www.w3.org/2000/svg">
<path d="M181.899 3.80237C132.749 16.8749 95.0452 55.038 68.5627 117.87C34.2253 198.835 16.7199 335.042 3.02978 621.793C-1.00993 704.656 -1.00993 1084.18 3.02978 1157.34C14.2512 1364.82 23.9016 1472.77 42.978 1604.34C65.6452 1762.05 99.5338 1892.56 134.545 1959.61C157.661 2003.47 161.925 2006 211.075 2006C230.824 2006 249.676 2005.37 253.043 2004.31C268.528 2000.31 284.238 1980.28 300.621 1943.17C387.026 1749.82 437.298 1287.65 427.872 774.657C422.486 488.96 405.429 280.222 379.395 179.859C360.768 109.436 331.143 55.038 296.806 29.1039C282.443 18.3507 262.02 8.2301 243.841 3.1698C227.907 -1.25793 199.18 -1.04712 181.899 3.80237Z" fill="#F2EFE9"/>
<path d="M211.074 2005.5C220.945 2005.5 230.589 2005.34 238.184 2005.05C241.981 2004.91 245.263 2004.73 247.802 2004.52C250.363 2004.31 252.115 2004.08 252.894 2003.84L252.905 2003.83L252.917 2003.83C260.506 2001.87 268.22 1995.95 276.101 1985.85C283.976 1975.75 291.981 1961.5 300.164 1942.97L300.165 1942.96C343.334 1846.37 377.497 1682.55 399.687 1478.72C421.874 1274.91 432.085 1031.14 427.372 774.666C421.986 488.966 404.928 280.286 378.912 179.987C360.295 109.604 330.709 55.3375 296.506 29.5039C282.64 19.1231 263.093 9.32629 245.412 4.13867L243.707 3.65137C235.802 1.4549 224.689 0.401667 213.38 0.506836C202.073 0.612014 190.618 1.87538 182.034 4.28418L182.027 4.28516L180.882 4.5957C132.489 17.9014 95.2619 55.8111 69.0234 118.064V118.065L68.2227 119.971C34.9858 199.791 17.6637 333.007 4.17383 608.484L3.5293 621.817L3.34277 625.916C-0.508834 716.45 -0.44623 1085.31 3.5293 1157.32V1157.32C14.7503 1364.78 24.3993 1472.72 43.4727 1604.27V1604.27C66.1384 1761.97 100.017 1892.41 134.986 1959.38L134.987 1959.38C140.767 1970.35 145.355 1978.7 149.754 1985.08C154.149 1991.45 158.338 1995.82 163.306 1998.83C168.273 2001.83 174.061 2003.51 181.692 2004.42C189.331 2005.34 198.784 2005.5 211.074 2005.5Z" stroke="black" stroke-opacity="0.31"/>
<mask id="path-3-outside-1_347_35" maskUnits="userSpaceOnUse" x="147" y="660" width="135" height="138" fill="black">
<rect fill="white" x="147" y="660" width="135" height="138"/>
<path fill-rule="evenodd" clip-rule="evenodd" d="M197.09 677.69C199.02 677.288 200.659 677.628 201.708 678.686C201.992 678.971 202.281 679.43 202.525 679.938C202.769 680.447 202.973 681.017 203.08 681.531C203.329 682.765 203.356 683.848 203.315 686.554C203.274 689.262 203.164 693.606 203.137 701.376C203.082 716.938 198.924 731.456 195.818 737.58L195.67 737.869C194.143 740.822 192.812 742.784 190.802 745.045C186.527 749.861 180.736 753.004 174.006 754.176L173.93 754.189C173.134 754.313 172.001 754.558 167.961 754.558C165.136 754.558 163.457 754.335 162.25 754.24C161.038 754.144 160.144 753.96 158.58 753.613C157.241 753.316 156.364 753.071 155.736 752.772C155.1 752.468 154.721 752.11 154.375 751.596L153.99 751.032V747.477L154.363 746.914C155.014 745.935 156.35 745.255 157.637 745.255C157.774 745.255 158.087 745.309 158.464 745.388C158.848 745.468 159.315 745.579 159.771 745.701C166.405 747.445 172.679 747.069 177.75 744.619C184.16 741.516 193.724 732.373 194.499 710.316L194.5 710.303L194.502 710.291C194.658 709.579 194.942 707.048 195.209 704.203C195.475 701.364 195.724 698.227 195.811 696.313L195.848 695.506L195.053 697.044C191.245 704.42 187.293 710.619 183.381 715.355C182.043 716.975 178.646 720.423 177.342 721.483L177.282 721.532C173.403 724.623 170.028 726.003 166.533 725.897L166.367 725.891C164.789 725.824 163.982 725.634 162.869 725.084C161.068 724.2 159.956 722.457 159.568 719.948C159.467 719.333 159.449 718.344 159.491 717.338C159.534 716.331 159.638 715.292 159.788 714.577C160.768 709.93 163.768 704.545 168.455 698.984C172.792 693.843 177.621 689.309 183.401 684.919C188.699 680.905 193.332 678.456 197.09 677.69ZM194.552 682.621C194.517 682.598 194.154 682.845 189.902 685.774C183.465 690.208 176.852 695.867 173.16 700.09C169.129 704.701 166.558 709.277 165.834 713.124C165.355 715.712 165.425 716.877 166.103 717.453C166.441 717.735 166.535 717.759 167.294 717.712C168.837 717.606 170.204 716.653 173.311 713.512C175.87 710.924 177.81 708.63 180.789 704.619C186.222 697.325 191.164 689.538 194.038 683.75C194.342 683.15 194.575 682.645 194.552 682.621Z"/>
<path d="M216.611 661.15C217.182 660.939 218.065 660.955 218.773 661.17C219.524 661.391 220.274 662.059 220.628 662.807C220.742 663.05 220.825 663.283 220.865 663.575C220.905 663.865 220.903 664.208 220.854 664.672C220.758 665.596 220.474 667.028 219.95 669.526L219.811 670.186C216.937 683.869 213.933 700.966 212.341 712.716L212.265 713.28C211.708 717.475 211.096 723.123 210.845 726.512L210.826 726.778C210.731 728.151 210.657 730.131 210.62 731.876C210.6 732.807 210.591 733.67 210.595 734.338C210.597 734.672 210.602 734.956 210.611 735.175C210.62 735.398 210.632 735.542 210.645 735.604L210.646 735.606L210.652 735.638L211.482 733.921C212.551 731.7 213.337 729.885 214.922 726.009C215.404 724.809 216.134 723.022 216.626 721.817L216.781 721.438C221.209 710.555 224.11 704.245 226.554 700.159C228.114 697.557 229.439 695.82 230.735 694.808C232.041 693.789 233.317 693.505 234.757 693.805C236.818 694.236 238.434 695.879 239.276 698.346C239.884 700.116 240.005 700.97 240.06 703.973C240.137 707.775 239.829 710.869 238.79 716.942L238.736 717.254C238.199 720.431 238.044 722.219 238.211 723.476L238.211 723.478C238.319 724.366 238.517 724.985 238.837 725.414C239.152 725.837 239.597 726.091 240.235 726.224C240.851 726.355 241.64 726.291 242.465 726.059C243.288 725.828 244.138 725.432 244.874 724.913C246.066 724.069 247.115 722.854 249.302 719.801C250.599 717.982 251.621 716.737 252.637 715.835C253.656 714.929 254.667 714.37 255.938 713.914C258.905 712.843 262.308 713.013 265.582 714.379C266.523 714.772 267.987 715.495 269.214 716.242C269.828 716.616 270.387 716.998 270.792 717.352C270.995 717.529 271.163 717.702 271.281 717.866C271.397 718.028 271.477 718.198 271.472 718.365C271.469 718.486 271.396 718.575 271.312 718.637C271.229 718.698 271.117 718.747 270.99 718.791C270.736 718.88 270.377 718.96 269.959 719.056C269.115 719.249 267.996 719.51 266.853 720.03C265.711 720.55 264.548 721.328 263.618 722.552C262.689 723.775 261.985 725.452 261.773 727.781C261.562 730.103 262.12 731.718 263.057 732.853C263.997 733.991 265.332 734.66 266.703 735.062C268.074 735.464 269.469 735.595 270.517 735.665C271.037 735.699 271.479 735.719 271.782 735.749C271.932 735.764 272.06 735.783 272.15 735.811C272.193 735.825 272.244 735.845 272.283 735.881C272.304 735.9 272.326 735.926 272.338 735.962C272.351 735.999 272.351 736.037 272.342 736.071C272.316 736.17 272.246 736.254 272.164 736.324C272.08 736.396 271.97 736.465 271.84 736.531C271.58 736.664 271.224 736.793 270.799 736.907C269.948 737.136 268.802 737.313 267.547 737.348C265.043 737.419 262.064 736.925 260.133 735.107C258.606 733.668 257.182 731.277 256.661 729.291C255.899 726.383 256.153 723.982 256.608 722.181C256.836 721.282 257.114 720.532 257.339 719.947C257.452 719.653 257.55 719.405 257.624 719.197C257.658 719.098 257.686 719.012 257.707 718.938C256.471 719.354 255.645 720.118 253.964 722.44L253.788 722.683C252.009 725.17 251.148 726.278 250.115 727.354L250.014 727.458C247.247 730.332 244.352 731.665 240.781 731.685L240.611 731.685C237.399 731.674 234.851 730.365 233.194 727.867C231.583 725.439 231.104 722.449 231.565 717.973C231.663 717.078 231.981 714.597 232.287 712.46C232.609 710.159 232.907 707.838 233.123 705.978C233.339 704.112 233.472 702.721 233.466 702.27V701.967L233.213 702.25L233.212 702.251L233.152 702.319C232.838 702.683 232.308 703.431 231.732 704.306C231.119 705.237 230.462 706.3 229.972 707.172C228.095 710.481 225.189 716.556 220.947 726.008L219.86 728.418C217.612 733.401 217.258 734.156 216.243 736.202L216.012 736.664C213.643 741.369 211.813 744.104 210.073 745.523C209.679 745.841 209.351 746.053 208.999 746.181C208.645 746.31 208.277 746.352 207.809 746.346C206.921 746.341 206.216 746.074 205.66 745.483C205.11 744.898 204.717 744.008 204.42 742.782C204.275 742.185 204.208 741.181 204.201 739.868C204.194 738.55 204.248 736.91 204.348 735.034C204.549 731.282 204.937 726.581 205.406 721.621C206.344 711.702 207.604 700.743 208.331 694.267L208.331 694.262L208.332 694.257C209.491 687.856 210.782 681.399 212.772 672.002C213.166 670.152 213.701 667.553 213.963 666.221L213.964 666.22C214.1 665.553 214.243 664.888 214.363 664.354C214.482 663.828 214.582 663.419 214.634 663.265C214.952 662.269 215.692 661.474 216.611 661.15Z"/>
<path d="M152.748 778.255C151.811 778.255 150.983 778.065 150.265 777.685C149.546 777.305 148.986 776.777 148.584 776.103C148.195 775.416 148 774.624 148 773.729V769.608C148 768.712 148.195 767.921 148.584 767.234C148.986 766.547 149.546 766.02 150.265 765.652C150.983 765.272 151.811 765.082 152.748 765.082C153.673 765.082 154.489 765.266 155.195 765.634C155.914 766.002 156.468 766.504 156.857 767.142C157.259 767.768 157.46 768.467 157.46 769.24V769.369C157.46 769.43 157.436 769.485 157.387 769.534C157.35 769.571 157.302 769.589 157.241 769.589H155.104C155.043 769.589 154.988 769.571 154.94 769.534C154.903 769.485 154.885 769.43 154.885 769.369V769.313C154.885 768.749 154.69 768.277 154.301 767.897C153.911 767.504 153.393 767.308 152.748 767.308C152.091 767.308 151.561 767.516 151.159 767.933C150.77 768.338 150.575 768.872 150.575 769.534V773.803C150.575 774.465 150.788 775.005 151.214 775.422C151.64 775.827 152.182 776.029 152.84 776.029C153.473 776.029 153.978 775.863 154.355 775.532C154.733 775.189 154.921 774.716 154.921 774.115V773.287C154.921 773.226 154.891 773.196 154.83 773.196H152.785C152.724 773.196 152.669 773.177 152.62 773.14C152.584 773.091 152.566 773.036 152.566 772.975V771.282C152.566 771.221 152.584 771.172 152.62 771.135C152.669 771.086 152.724 771.061 152.785 771.061H157.241C157.302 771.061 157.35 771.086 157.387 771.135C157.436 771.172 157.46 771.221 157.46 771.282V773.711C157.46 774.643 157.265 775.452 156.875 776.139C156.486 776.826 155.932 777.354 155.214 777.722C154.507 778.077 153.686 778.255 152.748 778.255Z"/>
<path d="M170.377 778.31C169.427 778.31 168.587 778.114 167.857 777.722C167.138 777.329 166.578 776.783 166.177 776.084C165.775 775.373 165.574 774.557 165.574 773.637V769.7C165.574 768.792 165.775 767.989 166.177 767.289C166.578 766.59 167.138 766.051 167.857 765.67C168.587 765.278 169.427 765.082 170.377 765.082C171.339 765.082 172.179 765.278 172.897 765.67C173.628 766.051 174.194 766.59 174.596 767.289C174.997 767.989 175.198 768.792 175.198 769.7V773.637C175.198 774.557 174.997 775.373 174.596 776.084C174.194 776.796 173.628 777.348 172.897 777.74C172.179 778.12 171.339 778.31 170.377 778.31ZM170.377 776.084C171.047 776.084 171.588 775.869 172.002 775.44C172.416 775.011 172.623 774.44 172.623 773.729V769.681C172.623 768.97 172.416 768.4 172.002 767.97C171.601 767.529 171.059 767.308 170.377 767.308C169.707 767.308 169.166 767.529 168.752 767.97C168.35 768.4 168.149 768.97 168.149 769.681V773.729C168.149 774.44 168.35 775.011 168.752 775.44C169.166 775.869 169.707 776.084 170.377 776.084Z"/>
<path d="M188.111 778.31C187.162 778.31 186.322 778.114 185.591 777.722C184.873 777.329 184.313 776.783 183.911 776.084C183.509 775.373 183.308 774.557 183.308 773.637V769.7C183.308 768.792 183.509 767.989 183.911 767.289C184.313 766.59 184.873 766.051 185.591 765.67C186.322 765.278 187.162 765.082 188.111 765.082C189.073 765.082 189.913 765.278 190.632 765.67C191.362 766.051 191.928 766.59 192.33 767.289C192.732 767.989 192.933 768.792 192.933 769.7V773.637C192.933 774.557 192.732 775.373 192.33 776.084C191.928 776.796 191.362 777.348 190.632 777.74C189.913 778.12 189.073 778.31 188.111 778.31ZM188.111 776.084C188.781 776.084 189.323 775.869 189.737 775.44C190.151 775.011 190.358 774.44 190.358 773.729V769.681C190.358 768.97 190.151 768.4 189.737 767.97C189.335 767.529 188.793 767.308 188.111 767.308C187.442 767.308 186.9 767.529 186.486 767.97C186.084 768.4 185.883 768.97 185.883 769.681V773.729C185.883 774.44 186.084 775.011 186.486 775.44C186.9 775.869 187.442 776.084 188.111 776.084Z"/>
<path d="M201.518 778.108C201.457 778.108 201.402 778.09 201.353 778.053C201.317 778.004 201.298 777.949 201.298 777.887V765.45C201.298 765.388 201.317 765.339 201.353 765.302C201.402 765.253 201.457 765.229 201.518 765.229H206.083C206.996 765.229 207.794 765.394 208.476 765.726C209.17 766.044 209.705 766.498 210.083 767.087C210.46 767.676 210.649 768.357 210.649 769.129V774.207C210.649 774.98 210.46 775.661 210.083 776.25C209.705 776.838 209.17 777.298 208.476 777.63C207.794 777.949 206.996 778.108 206.083 778.108H201.518ZM203.873 775.79C203.873 775.851 203.904 775.882 203.965 775.882H206.175C206.735 775.882 207.185 775.692 207.526 775.311C207.879 774.931 208.062 774.422 208.074 773.784V769.553C208.074 768.915 207.897 768.406 207.544 768.025C207.203 767.645 206.741 767.455 206.156 767.455H203.965C203.904 767.455 203.873 767.486 203.873 767.547V775.79Z"/>
<path d="M226.157 765.45C226.157 765.388 226.175 765.339 226.211 765.302C226.26 765.253 226.315 765.229 226.376 765.229H228.056C228.117 765.229 228.165 765.253 228.202 765.302C228.251 765.339 228.275 765.388 228.275 765.45V777.887C228.275 777.949 228.251 778.004 228.202 778.053C228.165 778.09 228.117 778.108 228.056 778.108H226.376C226.315 778.108 226.26 778.09 226.211 778.053C226.175 778.004 226.157 777.949 226.157 777.887V772.625C226.157 772.564 226.126 772.533 226.065 772.533H221.408C221.347 772.533 221.317 772.564 221.317 772.625V777.887C221.317 777.949 221.293 778.004 221.244 778.053C221.207 778.09 221.159 778.108 221.098 778.108H219.418C219.357 778.108 219.302 778.09 219.253 778.053C219.217 778.004 219.199 777.949 219.199 777.887V765.45C219.199 765.388 219.217 765.339 219.253 765.302C219.302 765.253 219.357 765.229 219.418 765.229H221.098C221.159 765.229 221.207 765.253 221.244 765.302C221.293 765.339 221.317 765.388 221.317 765.45V770.601C221.317 770.663 221.347 770.693 221.408 770.693H226.065C226.126 770.693 226.157 770.663 226.157 770.601V765.45Z"/>
<path d="M241.547 778.292C240.633 778.292 239.824 778.108 239.118 777.74C238.411 777.36 237.864 776.826 237.474 776.139C237.097 775.452 236.908 774.661 236.908 773.766V769.571C236.908 768.688 237.103 767.909 237.492 767.234C237.882 766.547 238.424 766.02 239.118 765.652C239.824 765.272 240.633 765.082 241.547 765.082C242.472 765.082 243.281 765.272 243.975 765.652C244.682 766.02 245.229 766.547 245.619 767.234C246.009 767.909 246.203 768.688 246.203 769.571V773.766C246.203 774.661 246.009 775.452 245.619 776.139C245.229 776.826 244.682 777.36 243.975 777.74C243.281 778.108 242.472 778.292 241.547 778.292ZM241.547 776.452C242.314 776.452 242.928 776.213 243.391 775.735C243.854 775.256 244.085 774.624 244.085 773.839V769.553C244.085 768.755 243.854 768.117 243.391 767.639C242.928 767.161 242.314 766.921 241.547 766.921C240.792 766.921 240.183 767.161 239.72 767.639C239.258 768.117 239.026 768.755 239.026 769.553V773.839C239.026 774.624 239.258 775.256 239.72 775.735C240.183 776.213 240.792 776.452 241.547 776.452Z"/>
<path d="M260.085 765.21C260.852 765.21 261.527 765.37 262.112 765.689C262.696 766.008 263.146 766.461 263.463 767.05C263.792 767.627 263.956 768.295 263.956 769.056C263.956 769.804 263.792 770.466 263.463 771.043C263.134 771.619 262.666 772.067 262.057 772.386C261.46 772.693 260.766 772.846 259.975 772.846H257.053C256.992 772.846 256.962 772.877 256.962 772.938V777.887C256.962 777.949 256.937 778.004 256.889 778.053C256.852 778.09 256.803 778.108 256.743 778.108H255.062C255.001 778.108 254.947 778.09 254.898 778.053C254.861 778.004 254.843 777.949 254.843 777.887V765.431C254.843 765.37 254.861 765.321 254.898 765.284C254.947 765.235 255.001 765.21 255.062 765.21H260.085ZM259.774 771.116C260.395 771.116 260.894 770.932 261.272 770.564C261.649 770.196 261.838 769.712 261.838 769.111C261.838 768.498 261.649 768.001 261.272 767.621C260.894 767.24 260.395 767.05 259.774 767.05H257.053C256.992 767.05 256.962 767.081 256.962 767.142V771.024C256.962 771.086 256.992 771.116 257.053 771.116H259.774Z"/>
<path d="M280.862 766.848C280.862 766.909 280.838 766.964 280.789 767.013C280.752 767.05 280.704 767.069 280.643 767.069H274.415C274.355 767.069 274.324 767.099 274.324 767.161V770.601C274.324 770.663 274.355 770.693 274.415 770.693H278.598C278.658 770.693 278.707 770.718 278.744 770.767C278.792 770.804 278.817 770.853 278.817 770.914V772.312C278.817 772.374 278.792 772.429 278.744 772.478C278.707 772.515 278.658 772.533 278.598 772.533H274.415C274.355 772.533 274.324 772.564 274.324 772.625V776.176C274.324 776.237 274.355 776.268 274.415 776.268H280.643C280.704 776.268 280.752 776.293 280.789 776.342C280.838 776.379 280.862 776.428 280.862 776.489V777.887C280.862 777.949 280.838 778.004 280.789 778.053C280.752 778.09 280.704 778.108 280.643 778.108H272.425C272.364 778.108 272.309 778.09 272.26 778.053C272.224 778.004 272.206 777.949 272.206 777.887V765.45C272.206 765.388 272.224 765.339 272.26 765.302C272.309 765.253 272.364 765.229 272.425 765.229H280.643C280.704 765.229 280.752 765.253 280.789 765.302C280.838 765.339 280.862 765.388 280.862 765.45V766.848Z"/>
<path d="M151.721 797C150.583 797 149.682 796.745 149.02 796.234C148.358 795.712 148.026 795.019 148.026 794.154V793.638C148.026 793.533 148.078 793.481 148.182 793.481H148.663C148.766 793.481 148.818 793.533 148.818 793.638V794.107C148.818 794.753 149.082 795.274 149.61 795.671C150.138 796.067 150.862 796.265 151.783 796.265C152.642 796.265 153.299 796.088 153.754 795.733C154.21 795.368 154.437 794.868 154.437 794.232C154.437 793.846 154.334 793.512 154.127 793.231C153.93 792.939 153.62 792.668 153.196 792.418C152.782 792.168 152.192 791.881 151.426 791.558C150.619 791.214 150.008 790.927 149.594 790.697C149.191 790.468 148.865 790.181 148.616 789.837C148.368 789.483 148.244 789.029 148.244 788.477C148.244 787.622 148.534 786.965 149.113 786.506C149.703 786.037 150.515 785.802 151.55 785.802C152.678 785.802 153.563 786.063 154.205 786.584C154.846 787.106 155.167 787.804 155.167 788.68V789.04C155.167 789.144 155.115 789.196 155.012 789.196H154.5C154.396 789.196 154.344 789.144 154.344 789.04V788.727C154.344 788.07 154.096 787.544 153.599 787.147C153.102 786.741 152.404 786.537 151.504 786.537C150.717 786.537 150.112 786.704 149.687 787.038C149.263 787.361 149.051 787.83 149.051 788.445C149.051 788.862 149.149 789.201 149.346 789.462C149.543 789.723 149.822 789.952 150.184 790.15C150.557 790.338 151.126 790.588 151.892 790.901C152.658 791.214 153.273 791.516 153.739 791.808C154.215 792.089 154.588 792.423 154.857 792.809C155.126 793.194 155.26 793.658 155.26 794.201C155.26 795.045 154.95 795.723 154.329 796.234C153.708 796.745 152.839 797 151.721 797Z"/>
<path d="M165.739 797C165.025 797 164.393 796.859 163.845 796.578C163.307 796.286 162.888 795.879 162.588 795.358C162.287 794.837 162.137 794.237 162.137 793.559V786.084C162.137 785.98 162.189 785.928 162.293 785.928H162.805C162.908 785.928 162.96 785.98 162.96 786.084V793.591C162.96 794.393 163.214 795.04 163.721 795.53C164.238 796.02 164.911 796.265 165.739 796.265C166.577 796.265 167.25 796.02 167.757 795.53C168.264 795.04 168.517 794.393 168.517 793.591V786.084C168.517 785.98 168.569 785.928 168.673 785.928H169.185C169.288 785.928 169.34 785.98 169.34 786.084V793.559C169.34 794.237 169.19 794.837 168.89 795.358C168.59 795.879 168.165 796.286 167.617 796.578C167.079 796.859 166.453 797 165.739 797Z"/>
<path d="M183.347 796.875C183.254 796.875 183.192 796.838 183.16 796.765L180.785 791.792C180.775 791.761 180.754 791.745 180.723 791.745H177.789C177.748 791.745 177.727 791.766 177.727 791.808V796.718C177.727 796.823 177.676 796.875 177.572 796.875H177.06C176.956 796.875 176.905 796.823 176.905 796.718V786.084C176.905 785.98 176.956 785.928 177.06 785.928H180.972C181.841 785.928 182.54 786.199 183.067 786.741C183.605 787.283 183.875 787.992 183.875 788.868C183.875 789.608 183.673 790.233 183.269 790.744C182.866 791.245 182.322 791.558 181.639 791.683C181.587 791.704 181.572 791.73 181.593 791.761L183.968 796.687C183.978 796.708 183.983 796.734 183.983 796.765C183.983 796.838 183.942 796.875 183.859 796.875H183.347ZM177.789 786.663C177.748 786.663 177.727 786.683 177.727 786.725V790.995C177.727 791.036 177.748 791.057 177.789 791.057H180.894C181.536 791.057 182.053 790.854 182.446 790.447C182.85 790.041 183.052 789.514 183.052 788.868C183.052 788.211 182.85 787.679 182.446 787.272C182.053 786.866 181.536 786.663 180.894 786.663H177.789Z"/>
<path d="M197.819 786.506C197.819 786.61 197.767 786.663 197.664 786.663H191.796C191.755 786.663 191.734 786.683 191.734 786.725V790.948C191.734 790.989 191.755 791.01 191.796 791.01H195.956C196.06 791.01 196.111 791.062 196.111 791.167V791.589C196.111 791.693 196.06 791.745 195.956 791.745H191.796C191.755 791.745 191.734 791.766 191.734 791.808V796.718C191.734 796.823 191.682 796.875 191.579 796.875H191.066C190.963 796.875 190.911 796.823 190.911 796.718V786.084C190.911 785.98 190.963 785.928 191.066 785.928H197.664C197.767 785.928 197.819 785.98 197.819 786.084V786.506Z"/>
<path d="M209.481 791.167C209.461 791.177 209.45 791.187 209.45 791.198C209.45 791.208 209.461 791.219 209.481 791.229C210.04 791.469 210.47 791.818 210.77 792.277C211.08 792.736 211.236 793.283 211.236 793.919C211.236 794.837 210.946 795.561 210.366 796.093C209.797 796.614 209.042 796.875 208.1 796.875H204.421C204.318 796.875 204.266 796.823 204.266 796.718V786.084C204.266 785.98 204.318 785.928 204.421 785.928H207.991C208.954 785.928 209.714 786.178 210.273 786.678C210.832 787.179 211.111 787.872 211.111 788.758C211.111 789.342 210.972 789.837 210.692 790.244C210.413 790.651 210.009 790.958 209.481 791.167ZM205.151 786.663C205.109 786.663 205.088 786.683 205.088 786.725V790.823C205.088 790.864 205.109 790.885 205.151 790.885H207.991C208.695 790.885 209.254 790.697 209.668 790.322C210.092 789.936 210.304 789.431 210.304 788.805C210.304 788.159 210.092 787.643 209.668 787.257C209.254 786.861 208.695 786.663 207.991 786.663H205.151ZM208.1 796.124C208.804 796.124 209.362 795.921 209.776 795.514C210.201 795.097 210.413 794.55 210.413 793.872C210.413 793.174 210.196 792.621 209.761 792.214C209.326 791.797 208.747 791.589 208.022 791.589H205.151C205.109 791.589 205.088 791.61 205.088 791.651V796.062C205.088 796.103 205.109 796.124 205.151 796.124H208.1Z"/>
<path d="M221.728 797C221.014 797 220.383 796.854 219.835 796.562C219.296 796.26 218.877 795.843 218.577 795.311C218.287 794.769 218.143 794.148 218.143 793.45V789.352C218.143 788.654 218.287 788.039 218.577 787.507C218.877 786.965 219.296 786.548 219.835 786.256C220.383 785.954 221.014 785.802 221.728 785.802C222.442 785.802 223.074 785.954 223.622 786.256C224.171 786.548 224.595 786.965 224.895 787.507C225.195 788.039 225.345 788.654 225.345 789.352V793.45C225.345 794.148 225.195 794.769 224.895 795.311C224.595 795.843 224.171 796.26 223.622 796.562C223.074 796.854 222.442 797 221.728 797ZM221.728 796.281C222.567 796.281 223.239 796.025 223.746 795.514C224.264 795.003 224.523 794.326 224.523 793.481V789.337C224.523 788.503 224.264 787.83 223.746 787.319C223.239 786.798 222.567 786.537 221.728 786.537C220.9 786.537 220.233 786.798 219.726 787.319C219.219 787.83 218.965 788.503 218.965 789.337V793.481C218.965 794.326 219.219 795.003 219.726 795.514C220.233 796.025 220.9 796.281 221.728 796.281Z"/>
<path d="M239.037 796.875C238.943 796.875 238.881 796.833 238.85 796.75L238.183 794.67C238.172 794.639 238.152 794.623 238.121 794.623H233.277C233.246 794.623 233.226 794.639 233.215 794.67L232.563 796.75C232.532 796.833 232.47 796.875 232.377 796.875H231.834C231.72 796.875 231.679 796.818 231.71 796.703L235.156 786.053C235.187 785.969 235.249 785.928 235.342 785.928H236.041C236.134 785.928 236.196 785.969 236.227 786.053L239.688 796.703L239.704 796.765C239.704 796.838 239.657 796.875 239.564 796.875H239.037ZM233.464 793.857C233.453 793.877 233.453 793.898 233.464 793.919C233.484 793.93 233.505 793.935 233.526 793.935H237.872C237.893 793.935 237.909 793.93 237.919 793.919C237.94 793.898 237.945 793.877 237.934 793.857L235.746 787.054C235.735 787.033 235.72 787.022 235.699 787.022C235.678 787.022 235.663 787.033 235.653 787.054L233.464 793.857Z"/>
<path d="M252.803 796.875C252.71 796.875 252.648 796.838 252.617 796.765L250.242 791.792C250.231 791.761 250.211 791.745 250.18 791.745H247.246C247.204 791.745 247.184 791.766 247.184 791.808V796.718C247.184 796.823 247.132 796.875 247.028 796.875H246.516C246.413 796.875 246.361 796.823 246.361 796.718V786.084C246.361 785.98 246.413 785.928 246.516 785.928H250.428C251.297 785.928 251.996 786.199 252.524 786.741C253.062 787.283 253.331 787.992 253.331 788.868C253.331 789.608 253.129 790.233 252.725 790.744C252.322 791.245 251.778 791.558 251.095 791.683C251.044 791.704 251.028 791.73 251.049 791.761L253.424 796.687C253.434 796.708 253.439 796.734 253.439 796.765C253.439 796.838 253.398 796.875 253.315 796.875H252.803ZM247.246 786.663C247.204 786.663 247.184 786.683 247.184 786.725V790.995C247.184 791.036 247.204 791.057 247.246 791.057H250.35C250.992 791.057 251.509 790.854 251.903 790.447C252.306 790.041 252.508 789.514 252.508 788.868C252.508 788.211 252.306 787.679 251.903 787.272C251.509 786.866 250.992 786.663 250.35 786.663H247.246Z"/>
<path d="M260.523 796.875C260.419 796.875 260.367 796.823 260.367 796.718V786.084C260.367 785.98 260.419 785.928 260.523 785.928H264.124C265.117 785.928 265.904 786.193 266.483 786.725C267.063 787.246 267.353 787.961 267.353 788.868V793.935C267.353 794.842 267.063 795.561 266.483 796.093C265.904 796.614 265.117 796.875 264.124 796.875H260.523ZM261.19 796.077C261.19 796.119 261.211 796.14 261.252 796.14H264.171C264.895 796.14 265.464 795.937 265.878 795.53C266.302 795.113 266.52 794.55 266.53 793.841V788.962C266.53 788.253 266.318 787.695 265.894 787.288C265.48 786.871 264.905 786.663 264.171 786.663H261.252C261.211 786.663 261.19 786.683 261.19 786.725V796.077Z"/>
<path d="M277.461 797C276.322 797 275.422 796.745 274.76 796.234C274.097 795.712 273.766 795.019 273.766 794.154V793.638C273.766 793.533 273.818 793.481 273.922 793.481H274.403C274.506 793.481 274.558 793.533 274.558 793.638V794.107C274.558 794.753 274.822 795.274 275.35 795.671C275.877 796.067 276.602 796.265 277.523 796.265C278.382 796.265 279.039 796.088 279.494 795.733C279.95 795.368 280.177 794.868 280.177 794.232C280.177 793.846 280.074 793.512 279.867 793.231C279.67 792.939 279.36 792.668 278.935 792.418C278.521 792.168 277.932 791.881 277.166 791.558C276.359 791.214 275.748 790.927 275.334 790.697C274.931 790.468 274.605 790.181 274.356 789.837C274.108 789.483 273.984 789.029 273.984 788.477C273.984 787.622 274.273 786.965 274.853 786.506C275.443 786.037 276.255 785.802 277.29 785.802C278.418 785.802 279.303 786.063 279.944 786.584C280.586 787.106 280.907 787.804 280.907 788.68V789.04C280.907 789.144 280.855 789.196 280.752 789.196H280.239C280.136 789.196 280.084 789.144 280.084 789.04V788.727C280.084 788.07 279.836 787.544 279.339 787.147C278.842 786.741 278.144 786.537 277.243 786.537C276.457 786.537 275.852 786.704 275.427 787.038C275.003 787.361 274.791 787.83 274.791 788.445C274.791 788.862 274.889 789.201 275.086 789.462C275.282 789.723 275.562 789.952 275.924 790.15C276.297 790.338 276.866 790.588 277.632 790.901C278.397 791.214 279.013 791.516 279.479 791.808C279.955 792.089 280.327 792.423 280.596 792.809C280.865 793.194 281 793.658 281 794.201C281 795.045 280.69 795.723 280.069 796.234C279.448 796.745 278.578 797 277.461 797Z"/>
</mask>
<path fill-rule="evenodd" clip-rule="evenodd" d="M197.09 677.69C199.02 677.288 200.659 677.628 201.708 678.686C201.992 678.971 202.281 679.43 202.525 679.938C202.769 680.447 202.973 681.017 203.08 681.531C203.329 682.765 203.356 683.848 203.315 686.554C203.274 689.262 203.164 693.606 203.137 701.376C203.082 716.938 198.924 731.456 195.818 737.58L195.67 737.869C194.143 740.822 192.812 742.784 190.802 745.045C186.527 749.861 180.736 753.004 174.006 754.176L173.93 754.189C173.134 754.313 172.001 754.558 167.961 754.558C165.136 754.558 163.457 754.335 162.25 754.24C161.038 754.144 160.144 753.96 158.58 753.613C157.241 753.316 156.364 753.071 155.736 752.772C155.1 752.468 154.721 752.11 154.375 751.596L153.99 751.032V747.477L154.363 746.914C155.014 745.935 156.35 745.255 157.637 745.255C157.774 745.255 158.087 745.309 158.464 745.388C158.848 745.468 159.315 745.579 159.771 745.701C166.405 747.445 172.679 747.069 177.75 744.619C184.16 741.516 193.724 732.373 194.499 710.316L194.5 710.303L194.502 710.291C194.658 709.579 194.942 707.048 195.209 704.203C195.475 701.364 195.724 698.227 195.811 696.313L195.848 695.506L195.053 697.044C191.245 704.42 187.293 710.619 183.381 715.355C182.043 716.975 178.646 720.423 177.342 721.483L177.282 721.532C173.403 724.623 170.028 726.003 166.533 725.897L166.367 725.891C164.789 725.824 163.982 725.634 162.869 725.084C161.068 724.2 159.956 722.457 159.568 719.948C159.467 719.333 159.449 718.344 159.491 717.338C159.534 716.331 159.638 715.292 159.788 714.577C160.768 709.93 163.768 704.545 168.455 698.984C172.792 693.843 177.621 689.309 183.401 684.919C188.699 680.905 193.332 678.456 197.09 677.69ZM194.552 682.621C194.517 682.598 194.154 682.845 189.902 685.774C183.465 690.208 176.852 695.867 173.16 700.09C169.129 704.701 166.558 709.277 165.834 713.124C165.355 715.712 165.425 716.877 166.103 717.453C166.441 717.735 166.535 717.759 167.294 717.712C168.837 717.606 170.204 716.653 173.311 713.512C175.87 710.924 177.81 708.63 180.789 704.619C186.222 697.325 191.164 689.538 194.038 683.75C194.342 683.15 194.575 682.645 194.552 682.621Z" fill="black"/>
<path d="M216.611 661.15C217.182 660.939 218.065 660.955 218.773 661.17C219.524 661.391 220.274 662.059 220.628 662.807C220.742 663.05 220.825 663.283 220.865 663.575C220.905 663.865 220.903 664.208 220.854 664.672C220.758 665.596 220.474 667.028 219.95 669.526L219.811 670.186C216.937 683.869 213.933 700.966 212.341 712.716L212.265 713.28C211.708 717.475 211.096 723.123 210.845 726.512L210.826 726.778C210.731 728.151 210.657 730.131 210.62 731.876C210.6 732.807 210.591 733.67 210.595 734.338C210.597 734.672 210.602 734.956 210.611 735.175C210.62 735.398 210.632 735.542 210.645 735.604L210.646 735.606L210.652 735.638L211.482 733.921C212.551 731.7 213.337 729.885 214.922 726.009C215.404 724.809 216.134 723.022 216.626 721.817L216.781 721.438C221.209 710.555 224.11 704.245 226.554 700.159C228.114 697.557 229.439 695.82 230.735 694.808C232.041 693.789 233.317 693.505 234.757 693.805C236.818 694.236 238.434 695.879 239.276 698.346C239.884 700.116 240.005 700.97 240.06 703.973C240.137 707.775 239.829 710.869 238.79 716.942L238.736 717.254C238.199 720.431 238.044 722.219 238.211 723.476L238.211 723.478C238.319 724.366 238.517 724.985 238.837 725.414C239.152 725.837 239.597 726.091 240.235 726.224C240.851 726.355 241.64 726.291 242.465 726.059C243.288 725.828 244.138 725.432 244.874 724.913C246.066 724.069 247.115 722.854 249.302 719.801C250.599 717.982 251.621 716.737 252.637 715.835C253.656 714.929 254.667 714.37 255.938 713.914C258.905 712.843 262.308 713.013 265.582 714.379C266.523 714.772 267.987 715.495 269.214 716.242C269.828 716.616 270.387 716.998 270.792 717.352C270.995 717.529 271.163 717.702 271.281 717.866C271.397 718.028 271.477 718.198 271.472 718.365C271.469 718.486 271.396 718.575 271.312 718.637C271.229 718.698 271.117 718.747 270.99 718.791C270.736 718.88 270.377 718.96 269.959 719.056C269.115 719.249 267.996 719.51 266.853 720.03C265.711 720.55 264.548 721.328 263.618 722.552C262.689 723.775 261.985 725.452 261.773 727.781C261.562 730.103 262.12 731.718 263.057 732.853C263.997 733.991 265.332 734.66 266.703 735.062C268.074 735.464 269.469 735.595 270.517 735.665C271.037 735.699 271.479 735.719 271.782 735.749C271.932 735.764 272.06 735.783 272.15 735.811C272.193 735.825 272.244 735.845 272.283 735.881C272.304 735.9 272.326 735.926 272.338 735.962C272.351 735.999 272.351 736.037 272.342 736.071C272.316 736.17 272.246 736.254 272.164 736.324C272.08 736.396 271.97 736.465 271.84 736.531C271.58 736.664 271.224 736.793 270.799 736.907C269.948 737.136 268.802 737.313 267.547 737.348C265.043 737.419 262.064 736.925 260.133 735.107C258.606 733.668 257.182 731.277 256.661 729.291C255.899 726.383 256.153 723.982 256.608 722.181C256.836 721.282 257.114 720.532 257.339 719.947C257.452 719.653 257.55 719.405 257.624 719.197C257.658 719.098 257.686 719.012 257.707 718.938C256.471 719.354 255.645 720.118 253.964 722.44L253.788 722.683C252.009 725.17 251.148 726.278 250.115 727.354L250.014 727.458C247.247 730.332 244.352 731.665 240.781 731.685L240.611 731.685C237.399 731.674 234.851 730.365 233.194 727.867C231.583 725.439 231.104 722.449 231.565 717.973C231.663 717.078 231.981 714.597 232.287 712.46C232.609 710.159 232.907 707.838 233.123 705.978C233.339 704.112 233.472 702.721 233.466 702.27V701.967L233.213 702.25L233.212 702.251L233.152 702.319C232.838 702.683 232.308 703.431 231.732 704.306C231.119 705.237 230.462 706.3 229.972 707.172C228.095 710.481 225.189 716.556 220.947 726.008L219.86 728.418C217.612 733.401 217.258 734.156 216.243 736.202L216.012 736.664C213.643 741.369 211.813 744.104 210.073 745.523C209.679 745.841 209.351 746.053 208.999 746.181C208.645 746.31 208.277 746.352 207.809 746.346C206.921 746.341 206.216 746.074 205.66 745.483C205.11 744.898 204.717 744.008 204.42 742.782C204.275 742.185 204.208 741.181 204.201 739.868C204.194 738.55 204.248 736.91 204.348 735.034C204.549 731.282 204.937 726.581 205.406 721.621C206.344 711.702 207.604 700.743 208.331 694.267L208.331 694.262L208.332 694.257C209.491 687.856 210.782 681.399 212.772 672.002C213.166 670.152 213.701 667.553 213.963 666.221L213.964 666.22C214.1 665.553 214.243 664.888 214.363 664.354C214.482 663.828 214.582 663.419 214.634 663.265C214.952 662.269 215.692 661.474 216.611 661.15Z" fill="black"/>
<path d="M152.748 778.255C151.811 778.255 150.983 778.065 150.265 777.685C149.546 777.305 148.986 776.777 148.584 776.103C148.195 775.416 148 774.624 148 773.729V769.608C148 768.712 148.195 767.921 148.584 767.234C148.986 766.547 149.546 766.02 150.265 765.652C150.983 765.272 151.811 765.082 152.748 765.082C153.673 765.082 154.489 765.266 155.195 765.634C155.914 766.002 156.468 766.504 156.857 767.142C157.259 767.768 157.46 768.467 157.46 769.24V769.369C157.46 769.43 157.436 769.485 157.387 769.534C157.35 769.571 157.302 769.589 157.241 769.589H155.104C155.043 769.589 154.988 769.571 154.94 769.534C154.903 769.485 154.885 769.43 154.885 769.369V769.313C154.885 768.749 154.69 768.277 154.301 767.897C153.911 767.504 153.393 767.308 152.748 767.308C152.091 767.308 151.561 767.516 151.159 767.933C150.77 768.338 150.575 768.872 150.575 769.534V773.803C150.575 774.465 150.788 775.005 151.214 775.422C151.64 775.827 152.182 776.029 152.84 776.029C153.473 776.029 153.978 775.863 154.355 775.532C154.733 775.189 154.921 774.716 154.921 774.115V773.287C154.921 773.226 154.891 773.196 154.83 773.196H152.785C152.724 773.196 152.669 773.177 152.62 773.14C152.584 773.091 152.566 773.036 152.566 772.975V771.282C152.566 771.221 152.584 771.172 152.62 771.135C152.669 771.086 152.724 771.061 152.785 771.061H157.241C157.302 771.061 157.35 771.086 157.387 771.135C157.436 771.172 157.46 771.221 157.46 771.282V773.711C157.46 774.643 157.265 775.452 156.875 776.139C156.486 776.826 155.932 777.354 155.214 777.722C154.507 778.077 153.686 778.255 152.748 778.255Z" fill="black"/>
<path d="M170.377 778.31C169.427 778.31 168.587 778.114 167.857 777.722C167.138 777.329 166.578 776.783 166.177 776.084C165.775 775.373 165.574 774.557 165.574 773.637V769.7C165.574 768.792 165.775 767.989 166.177 767.289C166.578 766.59 167.138 766.051 167.857 765.67C168.587 765.278 169.427 765.082 170.377 765.082C171.339 765.082 172.179 765.278 172.897 765.67C173.628 766.051 174.194 766.59 174.596 767.289C174.997 767.989 175.198 768.792 175.198 769.7V773.637C175.198 774.557 174.997 775.373 174.596 776.084C174.194 776.796 173.628 777.348 172.897 777.74C172.179 778.12 171.339 778.31 170.377 778.31ZM170.377 776.084C171.047 776.084 171.588 775.869 172.002 775.44C172.416 775.011 172.623 774.44 172.623 773.729V769.681C172.623 768.97 172.416 768.4 172.002 767.97C171.601 767.529 171.059 767.308 170.377 767.308C169.707 767.308 169.166 767.529 168.752 767.97C168.35 768.4 168.149 768.97 168.149 769.681V773.729C168.149 774.44 168.35 775.011 168.752 775.44C169.166 775.869 169.707 776.084 170.377 776.084Z" fill="black"/>
<path d="M188.111 778.31C187.162 778.31 186.322 778.114 185.591 777.722C184.873 777.329 184.313 776.783 183.911 776.084C183.509 775.373 183.308 774.557 183.308 773.637V769.7C183.308 768.792 183.509 767.989 183.911 767.289C184.313 766.59 184.873 766.051 185.591 765.67C186.322 765.278 187.162 765.082 188.111 765.082C189.073 765.082 189.913 765.278 190.632 765.67C191.362 766.051 191.928 766.59 192.33 767.289C192.732 767.989 192.933 768.792 192.933 769.7V773.637C192.933 774.557 192.732 775.373 192.33 776.084C191.928 776.796 191.362 777.348 190.632 777.74C189.913 778.12 189.073 778.31 188.111 778.31ZM188.111 776.084C188.781 776.084 189.323 775.869 189.737 775.44C190.151 775.011 190.358 774.44 190.358 773.729V769.681C190.358 768.97 190.151 768.4 189.737 767.97C189.335 767.529 188.793 767.308 188.111 767.308C187.442 767.308 186.9 767.529 186.486 767.97C186.084 768.4 185.883 768.97 185.883 769.681V773.729C185.883 774.44 186.084 775.011 186.486 775.44C186.9 775.869 187.442 776.084 188.111 776.084Z" fill="black"/>
<path d="M201.518 778.108C201.457 778.108 201.402 778.09 201.353 778.053C201.317 778.004 201.298 777.949 201.298 777.887V765.45C201.298 765.388 201.317 765.339 201.353 765.302C201.402 765.253 201.457 765.229 201.518 765.229H206.083C206.996 765.229 207.794 765.394 208.476 765.726C209.17 766.044 209.705 766.498 210.083 767.087C210.46 767.676 210.649 768.357 210.649 769.129V774.207C210.649 774.98 210.46 775.661 210.083 776.25C209.705 776.838 209.17 777.298 208.476 777.63C207.794 777.949 206.996 778.108 206.083 778.108H201.518ZM203.873 775.79C203.873 775.851 203.904 775.882 203.965 775.882H206.175C206.735 775.882 207.185 775.692 207.526 775.311C207.879 774.931 208.062 774.422 208.074 773.784V769.553C208.074 768.915 207.897 768.406 207.544 768.025C207.203 767.645 206.741 767.455 206.156 767.455H203.965C203.904 767.455 203.873 767.486 203.873 767.547V775.79Z" fill="black"/>
<path d="M226.157 765.45C226.157 765.388 226.175 765.339 226.211 765.302C226.26 765.253 226.315 765.229 226.376 765.229H228.056C228.117 765.229 228.165 765.253 228.202 765.302C228.251 765.339 228.275 765.388 228.275 765.45V777.887C228.275 777.949 228.251 778.004 228.202 778.053C228.165 778.09 228.117 778.108 228.056 778.108H226.376C226.315 778.108 226.26 778.09 226.211 778.053C226.175 778.004 226.157 777.949 226.157 777.887V772.625C226.157 772.564 226.126 772.533 226.065 772.533H221.408C221.347 772.533 221.317 772.564 221.317 772.625V777.887C221.317 777.949 221.293 778.004 221.244 778.053C221.207 778.09 221.159 778.108 221.098 778.108H219.418C219.357 778.108 219.302 778.09 219.253 778.053C219.217 778.004 219.199 777.949 219.199 777.887V765.45C219.199 765.388 219.217 765.339 219.253 765.302C219.302 765.253 219.357 765.229 219.418 765.229H221.098C221.159 765.229 221.207 765.253 221.244 765.302C221.293 765.339 221.317 765.388 221.317 765.45V770.601C221.317 770.663 221.347 770.693 221.408 770.693H226.065C226.126 770.693 226.157 770.663 226.157 770.601V765.45Z" fill="black"/>
<path d="M241.547 778.292C240.633 778.292 239.824 778.108 239.118 777.74C238.411 777.36 237.864 776.826 237.474 776.139C237.097 775.452 236.908 774.661 236.908 773.766V769.571C236.908 768.688 237.103 767.909 237.492 767.234C237.882 766.547 238.424 766.02 239.118 765.652C239.824 765.272 240.633 765.082 241.547 765.082C242.472 765.082 243.281 765.272 243.975 765.652C244.682 766.02 245.229 766.547 245.619 767.234C246.009 767.909 246.203 768.688 246.203 769.571V773.766C246.203 774.661 246.009 775.452 245.619 776.139C245.229 776.826 244.682 777.36 243.975 777.74C243.281 778.108 242.472 778.292 241.547 778.292ZM241.547 776.452C242.314 776.452 242.928 776.213 243.391 775.735C243.854 775.256 244.085 774.624 244.085 773.839V769.553C244.085 768.755 243.854 768.117 243.391 767.639C242.928 767.161 242.314 766.921 241.547 766.921C240.792 766.921 240.183 767.161 239.72 767.639C239.258 768.117 239.026 768.755 239.026 769.553V773.839C239.026 774.624 239.258 775.256 239.72 775.735C240.183 776.213 240.792 776.452 241.547 776.452Z" fill="black"/>
<path d="M260.085 765.21C260.852 765.21 261.527 765.37 262.112 765.689C262.696 766.008 263.146 766.461 263.463 767.05C263.792 767.627 263.956 768.295 263.956 769.056C263.956 769.804 263.792 770.466 263.463 771.043C263.134 771.619 262.666 772.067 262.057 772.386C261.46 772.693 260.766 772.846 259.975 772.846H257.053C256.992 772.846 256.962 772.877 256.962 772.938V777.887C256.962 777.949 256.937 778.004 256.889 778.053C256.852 778.09 256.803 778.108 256.743 778.108H255.062C255.001 778.108 254.947 778.09 254.898 778.053C254.861 778.004 254.843 777.949 254.843 777.887V765.431C254.843 765.37 254.861 765.321 254.898 765.284C254.947 765.235 255.001 765.21 255.062 765.21H260.085ZM259.774 771.116C260.395 771.116 260.894 770.932 261.272 770.564C261.649 770.196 261.838 769.712 261.838 769.111C261.838 768.498 261.649 768.001 261.272 767.621C260.894 767.24 260.395 767.05 259.774 767.05H257.053C256.992 767.05 256.962 767.081 256.962 767.142V771.024C256.962 771.086 256.992 771.116 257.053 771.116H259.774Z" fill="black"/>
<path d="M280.862 766.848C280.862 766.909 280.838 766.964 280.789 767.013C280.752 767.05 280.704 767.069 280.643 767.069H274.415C274.355 767.069 274.324 767.099 274.324 767.161V770.601C274.324 770.663 274.355 770.693 274.415 770.693H278.598C278.658 770.693 278.707 770.718 278.744 770.767C278.792 770.804 278.817 770.853 278.817 770.914V772.312C278.817 772.374 278.792 772.429 278.744 772.478C278.707 772.515 278.658 772.533 278.598 772.533H274.415C274.355 772.533 274.324 772.564 274.324 772.625V776.176C274.324 776.237 274.355 776.268 274.415 776.268H280.643C280.704 776.268 280.752 776.293 280.789 776.342C280.838 776.379 280.862 776.428 280.862 776.489V777.887C280.862 777.949 280.838 778.004 280.789 778.053C280.752 778.09 280.704 778.108 280.643 778.108H272.425C272.364 778.108 272.309 778.09 272.26 778.053C272.224 778.004 272.206 777.949 272.206 777.887V765.45C272.206 765.388 272.224 765.339 272.26 765.302C272.309 765.253 272.364 765.229 272.425 765.229H280.643C280.704 765.229 280.752 765.253 280.789 765.302C280.838 765.339 280.862 765.388 280.862 765.45V766.848Z" fill="black"/>
<path d="M151.721 797C150.583 797 149.682 796.745 149.02 796.234C148.358 795.712 148.026 795.019 148.026 794.154V793.638C148.026 793.533 148.078 793.481 148.182 793.481H148.663C148.766 793.481 148.818 793.533 148.818 793.638V794.107C148.818 794.753 149.082 795.274 149.61 795.671C150.138 796.067 150.862 796.265 151.783 796.265C152.642 796.265 153.299 796.088 153.754 795.733C154.21 795.368 154.437 794.868 154.437 794.232C154.437 793.846 154.334 793.512 154.127 793.231C153.93 792.939 153.62 792.668 153.196 792.418C152.782 792.168 152.192 791.881 151.426 791.558C150.619 791.214 150.008 790.927 149.594 790.697C149.191 790.468 148.865 790.181 148.616 789.837C148.368 789.483 148.244 789.029 148.244 788.477C148.244 787.622 148.534 786.965 149.113 786.506C149.703 786.037 150.515 785.802 151.55 785.802C152.678 785.802 153.563 786.063 154.205 786.584C154.846 787.106 155.167 787.804 155.167 788.68V789.04C155.167 789.144 155.115 789.196 155.012 789.196H154.5C154.396 789.196 154.344 789.144 154.344 789.04V788.727C154.344 788.07 154.096 787.544 153.599 787.147C153.102 786.741 152.404 786.537 151.504 786.537C150.717 786.537 150.112 786.704 149.687 787.038C149.263 787.361 149.051 787.83 149.051 788.445C149.051 788.862 149.149 789.201 149.346 789.462C149.543 789.723 149.822 789.952 150.184 790.15C150.557 790.338 151.126 790.588 151.892 790.901C152.658 791.214 153.273 791.516 153.739 791.808C154.215 792.089 154.588 792.423 154.857 792.809C155.126 793.194 155.26 793.658 155.26 794.201C155.26 795.045 154.95 795.723 154.329 796.234C153.708 796.745 152.839 797 151.721 797Z" fill="black"/>
<path d="M165.739 797C165.025 797 164.393 796.859 163.845 796.578C163.307 796.286 162.888 795.879 162.588 795.358C162.287 794.837 162.137 794.237 162.137 793.559V786.084C162.137 785.98 162.189 785.928 162.293 785.928H162.805C162.908 785.928 162.96 785.98 162.96 786.084V793.591C162.96 794.393 163.214 795.04 163.721 795.53C164.238 796.02 164.911 796.265 165.739 796.265C166.577 796.265 167.25 796.02 167.757 795.53C168.264 795.04 168.517 794.393 168.517 793.591V786.084C168.517 785.98 168.569 785.928 168.673 785.928H169.185C169.288 785.928 169.34 785.98 169.34 786.084V793.559C169.34 794.237 169.19 794.837 168.89 795.358C168.59 795.879 168.165 796.286 167.617 796.578C167.079 796.859 166.453 797 165.739 797Z" fill="black"/>
<path d="M183.347 796.875C183.254 796.875 183.192 796.838 183.16 796.765L180.785 791.792C180.775 791.761 180.754 791.745 180.723 791.745H177.789C177.748 791.745 177.727 791.766 177.727 791.808V796.718C177.727 796.823 177.676 796.875 177.572 796.875H177.06C176.956 796.875 176.905 796.823 176.905 796.718V786.084C176.905 785.98 176.956 785.928 177.06 785.928H180.972C181.841 785.928 182.54 786.199 183.067 786.741C183.605 787.283 183.875 787.992 183.875 788.868C183.875 789.608 183.673 790.233 183.269 790.744C182.866 791.245 182.322 791.558 181.639 791.683C181.587 791.704 181.572 791.73 181.593 791.761L183.968 796.687C183.978 796.708 183.983 796.734 183.983 796.765C183.983 796.838 183.942 796.875 183.859 796.875H183.347ZM177.789 786.663C177.748 786.663 177.727 786.683 177.727 786.725V790.995C177.727 791.036 177.748 791.057 177.789 791.057H180.894C181.536 791.057 182.053 790.854 182.446 790.447C182.85 790.041 183.052 789.514 183.052 788.868C183.052 788.211 182.85 787.679 182.446 787.272C182.053 786.866 181.536 786.663 180.894 786.663H177.789Z" fill="black"/>
<path d="M197.819 786.506C197.819 786.61 197.767 786.663 197.664 786.663H191.796C191.755 786.663 191.734 786.683 191.734 786.725V790.948C191.734 790.989 191.755 791.01 191.796 791.01H195.956C196.06 791.01 196.111 791.062 196.111 791.167V791.589C196.111 791.693 196.06 791.745 195.956 791.745H191.796C191.755 791.745 191.734 791.766 191.734 791.808V796.718C191.734 796.823 191.682 796.875 191.579 796.875H191.066C190.963 796.875 190.911 796.823 190.911 796.718V786.084C190.911 785.98 190.963 785.928 191.066 785.928H197.664C197.767 785.928 197.819 785.98 197.819 786.084V786.506Z" fill="black"/>
<path d="M209.481 791.167C209.461 791.177 209.45 791.187 209.45 791.198C209.45 791.208 209.461 791.219 209.481 791.229C210.04 791.469 210.47 791.818 210.77 792.277C211.08 792.736 211.236 793.283 211.236 793.919C211.236 794.837 210.946 795.561 210.366 796.093C209.797 796.614 209.042 796.875 208.1 796.875H204.421C204.318 796.875 204.266 796.823 204.266 796.718V786.084C204.266 785.98 204.318 785.928 204.421 785.928H207.991C208.954 785.928 209.714 786.178 210.273 786.678C210.832 787.179 211.111 787.872 211.111 788.758C211.111 789.342 210.972 789.837 210.692 790.244C210.413 790.651 210.009 790.958 209.481 791.167ZM205.151 786.663C205.109 786.663 205.088 786.683 205.088 786.725V790.823C205.088 790.864 205.109 790.885 205.151 790.885H207.991C208.695 790.885 209.254 790.697 209.668 790.322C210.092 789.936 210.304 789.431 210.304 788.805C210.304 788.159 210.092 787.643 209.668 787.257C209.254 786.861 208.695 786.663 207.991 786.663H205.151ZM208.1 796.124C208.804 796.124 209.362 795.921 209.776 795.514C210.201 795.097 210.413 794.55 210.413 793.872C210.413 793.174 210.196 792.621 209.761 792.214C209.326 791.797 208.747 791.589 208.022 791.589H205.151C205.109 791.589 205.088 791.61 205.088 791.651V796.062C205.088 796.103 205.109 796.124 205.151 796.124H208.1Z" fill="black"/>
<path d="M221.728 797C221.014 797 220.383 796.854 219.835 796.562C219.296 796.26 218.877 795.843 218.577 795.311C218.287 794.769 218.143 794.148 218.143 793.45V789.352C218.143 788.654 218.287 788.039 218.577 787.507C218.877 786.965 219.296 786.548 219.835 786.256C220.383 785.954 221.014 785.802 221.728 785.802C222.442 785.802 223.074 785.954 223.622 786.256C224.171 786.548 224.595 786.965 224.895 787.507C225.195 788.039 225.345 788.654 225.345 789.352V793.45C225.345 794.148 225.195 794.769 224.895 795.311C224.595 795.843 224.171 796.26 223.622 796.562C223.074 796.854 222.442 797 221.728 797ZM221.728 796.281C222.567 796.281 223.239 796.025 223.746 795.514C224.264 795.003 224.523 794.326 224.523 793.481V789.337C224.523 788.503 224.264 787.83 223.746 787.319C223.239 786.798 222.567 786.537 221.728 786.537C220.9 786.537 220.233 786.798 219.726 787.319C219.219 787.83 218.965 788.503 218.965 789.337V793.481C218.965 794.326 219.219 795.003 219.726 795.514C220.233 796.025 220.9 796.281 221.728 796.281Z" fill="black"/>
<path d="M239.037 796.875C238.943 796.875 238.881 796.833 238.85 796.75L238.183 794.67C238.172 794.639 238.152 794.623 238.121 794.623H233.277C233.246 794.623 233.226 794.639 233.215 794.67L232.563 796.75C232.532 796.833 232.47 796.875 232.377 796.875H231.834C231.72 796.875 231.679 796.818 231.71 796.703L235.156 786.053C235.187 785.969 235.249 785.928 235.342 785.928H236.041C236.134 785.928 236.196 785.969 236.227 786.053L239.688 796.703L239.704 796.765C239.704 796.838 239.657 796.875 239.564 796.875H239.037ZM233.464 793.857C233.453 793.877 233.453 793.898 233.464 793.919C233.484 793.93 233.505 793.935 233.526 793.935H237.872C237.893 793.935 237.909 793.93 237.919 793.919C237.94 793.898 237.945 793.877 237.934 793.857L235.746 787.054C235.735 787.033 235.72 787.022 235.699 787.022C235.678 787.022 235.663 787.033 235.653 787.054L233.464 793.857Z" fill="black"/>
<path d="M252.803 796.875C252.71 796.875 252.648 796.838 252.617 796.765L250.242 791.792C250.231 791.761 250.211 791.745 250.18 791.745H247.246C247.204 791.745 247.184 791.766 247.184 791.808V796.718C247.184 796.823 247.132 796.875 247.028 796.875H246.516C246.413 796.875 246.361 796.823 246.361 796.718V786.084C246.361 785.98 246.413 785.928 246.516 785.928H250.428C251.297 785.928 251.996 786.199 252.524 786.741C253.062 787.283 253.331 787.992 253.331 788.868C253.331 789.608 253.129 790.233 252.725 790.744C252.322 791.245 251.778 791.558 251.095 791.683C251.044 791.704 251.028 791.73 251.049 791.761L253.424 796.687C253.434 796.708 253.439 796.734 253.439 796.765C253.439 796.838 253.398 796.875 253.315 796.875H252.803ZM247.246 786.663C247.204 786.663 247.184 786.683 247.184 786.725V790.995C247.184 791.036 247.204 791.057 247.246 791.057H250.35C250.992 791.057 251.509 790.854 251.903 790.447C252.306 790.041 252.508 789.514 252.508 788.868C252.508 788.211 252.306 787.679 251.903 787.272C251.509 786.866 250.992 786.663 250.35 786.663H247.246Z" fill="black"/>
<path d="M260.523 796.875C260.419 796.875 260.367 796.823 260.367 796.718V786.084C260.367 785.98 260.419 785.928 260.523 785.928H264.124C265.117 785.928 265.904 786.193 266.483 786.725C267.063 787.246 267.353 787.961 267.353 788.868V793.935C267.353 794.842 267.063 795.561 266.483 796.093C265.904 796.614 265.117 796.875 264.124 796.875H260.523ZM261.19 796.077C261.19 796.119 261.211 796.14 261.252 796.14H264.171C264.895 796.14 265.464 795.937 265.878 795.53C266.302 795.113 266.52 794.55 266.53 793.841V788.962C266.53 788.253 266.318 787.695 265.894 787.288C265.48 786.871 264.905 786.663 264.171 786.663H261.252C261.211 786.663 261.19 786.683 261.19 786.725V796.077Z" fill="black"/>
<path d="M277.461 797C276.322 797 275.422 796.745 274.76 796.234C274.097 795.712 273.766 795.019 273.766 794.154V793.638C273.766 793.533 273.818 793.481 273.922 793.481H274.403C274.506 793.481 274.558 793.533 274.558 793.638V794.107C274.558 794.753 274.822 795.274 275.35 795.671C275.877 796.067 276.602 796.265 277.523 796.265C278.382 796.265 279.039 796.088 279.494 795.733C279.95 795.368 280.177 794.868 280.177 794.232C280.177 793.846 280.074 793.512 279.867 793.231C279.67 792.939 279.36 792.668 278.935 792.418C278.521 792.168 277.932 791.881 277.166 791.558C276.359 791.214 275.748 790.927 275.334 790.697C274.931 790.468 274.605 790.181 274.356 789.837C274.108 789.483 273.984 789.029 273.984 788.477C273.984 787.622 274.273 786.965 274.853 786.506C275.443 786.037 276.255 785.802 277.29 785.802C278.418 785.802 279.303 786.063 279.944 786.584C280.586 787.106 280.907 787.804 280.907 788.68V789.04C280.907 789.144 280.855 789.196 280.752 789.196H280.239C280.136 789.196 280.084 789.144 280.084 789.04V788.727C280.084 788.07 279.836 787.544 279.339 787.147C278.842 786.741 278.144 786.537 277.243 786.537C276.457 786.537 275.852 786.704 275.427 787.038C275.003 787.361 274.791 787.83 274.791 788.445C274.791 788.862 274.889 789.201 275.086 789.462C275.282 789.723 275.562 789.952 275.924 790.15C276.297 790.338 276.866 790.588 277.632 790.901C278.397 791.214 279.013 791.516 279.479 791.808C279.955 792.089 280.327 792.423 280.596 792.809C280.865 793.194 281 793.658 281 794.201C281 795.045 280.69 795.723 280.069 796.234C279.448 796.745 278.578 797 277.461 797Z" fill="black"/>
<path fill-rule="evenodd" clip-rule="evenodd" d="M197.09 677.69C199.02 677.288 200.659 677.628 201.708 678.686C201.992 678.971 202.281 679.43 202.525 679.938C202.769 680.447 202.973 681.017 203.08 681.531C203.329 682.765 203.356 683.848 203.315 686.554C203.274 689.262 203.164 693.606 203.137 701.376C203.082 716.938 198.924 731.456 195.818 737.58L195.67 737.869C194.143 740.822 192.812 742.784 190.802 745.045C186.527 749.861 180.736 753.004 174.006 754.176L173.93 754.189C173.134 754.313 172.001 754.558 167.961 754.558C165.136 754.558 163.457 754.335 162.25 754.24C161.038 754.144 160.144 753.96 158.58 753.613C157.241 753.316 156.364 753.071 155.736 752.772C155.1 752.468 154.721 752.11 154.375 751.596L153.99 751.032V747.477L154.363 746.914C155.014 745.935 156.35 745.255 157.637 745.255C157.774 745.255 158.087 745.309 158.464 745.388C158.848 745.468 159.315 745.579 159.771 745.701C166.405 747.445 172.679 747.069 177.75 744.619C184.16 741.516 193.724 732.373 194.499 710.316L194.5 710.303L194.502 710.291C194.658 709.579 194.942 707.048 195.209 704.203C195.475 701.364 195.724 698.227 195.811 696.313L195.848 695.506L195.053 697.044C191.245 704.42 187.293 710.619 183.381 715.355C182.043 716.975 178.646 720.423 177.342 721.483L177.282 721.532C173.403 724.623 170.028 726.003 166.533 725.897L166.367 725.891C164.789 725.824 163.982 725.634 162.869 725.084C161.068 724.2 159.956 722.457 159.568 719.948C159.467 719.333 159.449 718.344 159.491 717.338C159.534 716.331 159.638 715.292 159.788 714.577C160.768 709.93 163.768 704.545 168.455 698.984C172.792 693.843 177.621 689.309 183.401 684.919C188.699 680.905 193.332 678.456 197.09 677.69ZM194.552 682.621C194.517 682.598 194.154 682.845 189.902 685.774C183.465 690.208 176.852 695.867 173.16 700.09C169.129 704.701 166.558 709.277 165.834 713.124C165.355 715.712 165.425 716.877 166.103 717.453C166.441 717.735 166.535 717.759 167.294 717.712C168.837 717.606 170.204 716.653 173.311 713.512C175.87 710.924 177.81 708.63 180.789 704.619C186.222 697.325 191.164 689.538 194.038 683.75C194.342 683.15 194.575 682.645 194.552 682.621Z" stroke="black" stroke-opacity="0.31" stroke-width="2" mask="url(#path-3-outside-1_347_35)"/>
<path d="M216.611 661.15C217.182 660.939 218.065 660.955 218.773 661.17C219.524 661.391 220.274 662.059 220.628 662.807C220.742 663.05 220.825 663.283 220.865 663.575C220.905 663.865 220.903 664.208 220.854 664.672C220.758 665.596 220.474 667.028 219.95 669.526L219.811 670.186C216.937 683.869 213.933 700.966 212.341 712.716L212.265 713.28C211.708 717.475 211.096 723.123 210.845 726.512L210.826 726.778C210.731 728.151 210.657 730.131 210.62 731.876C210.6 732.807 210.591 733.67 210.595 734.338C210.597 734.672 210.602 734.956 210.611 735.175C210.62 735.398 210.632 735.542 210.645 735.604L210.646 735.606L210.652 735.638L211.482 733.921C212.551 731.7 213.337 729.885 214.922 726.009C215.404 724.809 216.134 723.022 216.626 721.817L216.781 721.438C221.209 710.555 224.11 704.245 226.554 700.159C228.114 697.557 229.439 695.82 230.735 694.808C232.041 693.789 233.317 693.505 234.757 693.805C236.818 694.236 238.434 695.879 239.276 698.346C239.884 700.116 240.005 700.97 240.06 703.973C240.137 707.775 239.829 710.869 238.79 716.942L238.736 717.254C238.199 720.431 238.044 722.219 238.211 723.476L238.211 723.478C238.319 724.366 238.517 724.985 238.837 725.414C239.152 725.837 239.597 726.091 240.235 726.224C240.851 726.355 241.64 726.291 242.465 726.059C243.288 725.828 244.138 725.432 244.874 724.913C246.066 724.069 247.115 722.854 249.302 719.801C250.599 717.982 251.621 716.737 252.637 715.835C253.656 714.929 254.667 714.37 255.938 713.914C258.905 712.843 262.308 713.013 265.582 714.379C266.523 714.772 267.987 715.495 269.214 716.242C269.828 716.616 270.387 716.998 270.792 717.352C270.995 717.529 271.163 717.702 271.281 717.866C271.397 718.028 271.477 718.198 271.472 718.365C271.469 718.486 271.396 718.575 271.312 718.637C271.229 718.698 271.117 718.747 270.99 718.791C270.736 718.88 270.377 718.96 269.959 719.056C269.115 719.249 267.996 719.51 266.853 720.03C265.711 720.55 264.548 721.328 263.618 722.552C262.689 723.775 261.985 725.452 261.773 727.781C261.562 730.103 262.12 731.718 263.057 732.853C263.997 733.991 265.332 734.66 266.703 735.062C268.074 735.464 269.469 735.595 270.517 735.665C271.037 735.699 271.479 735.719 271.782 735.749C271.932 735.764 272.06 735.783 272.15 735.811C272.193 735.825 272.244 735.845 272.283 735.881C272.304 735.9 272.326 735.926 272.338 735.962C272.351 735.999 272.351 736.037 272.342 736.071C272.316 736.17 272.246 736.254 272.164 736.324C272.08 736.396 271.97 736.465 271.84 736.531C271.58 736.664 271.224 736.793 270.799 736.907C269.948 737.136 268.802 737.313 267.547 737.348C265.043 737.419 262.064 736.925 260.133 735.107C258.606 733.668 257.182 731.277 256.661 729.291C255.899 726.383 256.153 723.982 256.608 722.181C256.836 721.282 257.114 720.532 257.339 719.947C257.452 719.653 257.55 719.405 257.624 719.197C257.658 719.098 257.686 719.012 257.707 718.938C256.471 719.354 255.645 720.118 253.964 722.44L253.788 722.683C252.009 725.17 251.148 726.278 250.115 727.354L250.014 727.458C247.247 730.332 244.352 731.665 240.781 731.685L240.611 731.685C237.399 731.674 234.851 730.365 233.194 727.867C231.583 725.439 231.104 722.449 231.565 717.973C231.663 717.078 231.981 714.597 232.287 712.46C232.609 710.159 232.907 707.838 233.123 705.978C233.339 704.112 233.472 702.721 233.466 702.27V701.967L233.213 702.25L233.212 702.251L233.152 702.319C232.838 702.683 232.308 703.431 231.732 704.306C231.119 705.237 230.462 706.3 229.972 707.172C228.095 710.481 225.189 716.556 220.947 726.008L219.86 728.418C217.612 733.401 217.258 734.156 216.243 736.202L216.012 736.664C213.643 741.369 211.813 744.104 210.073 745.523C209.679 745.841 209.351 746.053 208.999 746.181C208.645 746.31 208.277 746.352 207.809 746.346C206.921 746.341 206.216 746.074 205.66 745.483C205.11 744.898 204.717 744.008 204.42 742.782C204.275 742.185 204.208 741.181 204.201 739.868C204.194 738.55 204.248 736.91 204.348 735.034C204.549 731.282 204.937 726.581 205.406 721.621C206.344 711.702 207.604 700.743 208.331 694.267L208.331 694.262L208.332 694.257C209.491 687.856 210.782 681.399 212.772 672.002C213.166 670.152 213.701 667.553 213.963 666.221L213.964 666.22C214.1 665.553 214.243 664.888 214.363 664.354C214.482 663.828 214.582 663.419 214.634 663.265C214.952 662.269 215.692 661.474 216.611 661.15Z" stroke="black" stroke-opacity="0.31" stroke-width="2" mask="url(#path-3-outside-1_347_35)"/>
<path d="M152.748 778.255C151.811 778.255 150.983 778.065 150.265 777.685C149.546 777.305 148.986 776.777 148.584 776.103C148.195 775.416 148 774.624 148 773.729V769.608C148 768.712 148.195 767.921 148.584 767.234C148.986 766.547 149.546 766.02 150.265 765.652C150.983 765.272 151.811 765.082 152.748 765.082C153.673 765.082 154.489 765.266 155.195 765.634C155.914 766.002 156.468 766.504 156.857 767.142C157.259 767.768 157.46 768.467 157.46 769.24V769.369C157.46 769.43 157.436 769.485 157.387 769.534C157.35 769.571 157.302 769.589 157.241 769.589H155.104C155.043 769.589 154.988 769.571 154.94 769.534C154.903 769.485 154.885 769.43 154.885 769.369V769.313C154.885 768.749 154.69 768.277 154.301 767.897C153.911 767.504 153.393 767.308 152.748 767.308C152.091 767.308 151.561 767.516 151.159 767.933C150.77 768.338 150.575 768.872 150.575 769.534V773.803C150.575 774.465 150.788 775.005 151.214 775.422C151.64 775.827 152.182 776.029 152.84 776.029C153.473 776.029 153.978 775.863 154.355 775.532C154.733 775.189 154.921 774.716 154.921 774.115V773.287C154.921 773.226 154.891 773.196 154.83 773.196H152.785C152.724 773.196 152.669 773.177 152.62 773.14C152.584 773.091 152.566 773.036 152.566 772.975V771.282C152.566 771.221 152.584 771.172 152.62 771.135C152.669 771.086 152.724 771.061 152.785 771.061H157.241C157.302 771.061 157.35 771.086 157.387 771.135C157.436 771.172 157.46 771.221 157.46 771.282V773.711C157.46 774.643 157.265 775.452 156.875 776.139C156.486 776.826 155.932 777.354 155.214 777.722C154.507 778.077 153.686 778.255 152.748 778.255Z" stroke="black" stroke-opacity="0.31" stroke-width="2" mask="url(#path-3-outside-1_347_35)"/>
<path d="M170.377 778.31C169.427 778.31 168.587 778.114 167.857 777.722C167.138 777.329 166.578 776.783 166.177 776.084C165.775 775.373 165.574 774.557 165.574 773.637V769.7C165.574 768.792 165.775 767.989 166.177 767.289C166.578 766.59 167.138 766.051 167.857 765.67C168.587 765.278 169.427 765.082 170.377 765.082C171.339 765.082 172.179 765.278 172.897 765.67C173.628 766.051 174.194 766.59 174.596 767.289C174.997 767.989 175.198 768.792 175.198 769.7V773.637C175.198 774.557 174.997 775.373 174.596 776.084C174.194 776.796 173.628 777.348 172.897 777.74C172.179 778.12 171.339 778.31 170.377 778.31ZM170.377 776.084C171.047 776.084 171.588 775.869 172.002 775.44C172.416 775.011 172.623 774.44 172.623 773.729V769.681C172.623 768.97 172.416 768.4 172.002 767.97C171.601 767.529 171.059 767.308 170.377 767.308C169.707 767.308 169.166 767.529 168.752 767.97C168.35 768.4 168.149 768.97 168.149 769.681V773.729C168.149 774.44 168.35 775.011 168.752 775.44C169.166 775.869 169.707 776.084 170.377 776.084Z" stroke="black" stroke-opacity="0.31" stroke-width="2" mask="url(#path-3-outside-1_347_35)"/>
<path d="M188.111 778.31C187.162 778.31 186.322 778.114 185.591 777.722C184.873 777.329 184.313 776.783 183.911 776.084C183.509 775.373 183.308 774.557 183.308 773.637V769.7C183.308 768.792 183.509 767.989 183.911 767.289C184.313 766.59 184.873 766.051 185.591 765.67C186.322 765.278 187.162 765.082 188.111 765.082C189.073 765.082 189.913 765.278 190.632 765.67C191.362 766.051 191.928 766.59 192.33 767.289C192.732 767.989 192.933 768.792 192.933 769.7V773.637C192.933 774.557 192.732 775.373 192.33 776.084C191.928 776.796 191.362 777.348 190.632 777.74C189.913 778.12 189.073 778.31 188.111 778.31ZM188.111 776.084C188.781 776.084 189.323 775.869 189.737 775.44C190.151 775.011 190.358 774.44 190.358 773.729V769.681C190.358 768.97 190.151 768.4 189.737 767.97C189.335 767.529 188.793 767.308 188.111 767.308C187.442 767.308 186.9 767.529 186.486 767.97C186.084 768.4 185.883 768.97 185.883 769.681V773.729C185.883 774.44 186.084 775.011 186.486 775.44C186.9 775.869 187.442 776.084 188.111 776.084Z" stroke="black" stroke-opacity="0.31" stroke-width="2" mask="url(#path-3-outside-1_347_35)"/>
<path d="M201.518 778.108C201.457 778.108 201.402 778.09 201.353 778.053C201.317 778.004 201.298 777.949 201.298 777.887V765.45C201.298 765.388 201.317 765.339 201.353 765.302C201.402 765.253 201.457 765.229 201.518 765.229H206.083C206.996 765.229 207.794 765.394 208.476 765.726C209.17 766.044 209.705 766.498 210.083 767.087C210.46 767.676 210.649 768.357 210.649 769.129V774.207C210.649 774.98 210.46 775.661 210.083 776.25C209.705 776.838 209.17 777.298 208.476 777.63C207.794 777.949 206.996 778.108 206.083 778.108H201.518ZM203.873 775.79C203.873 775.851 203.904 775.882 203.965 775.882H206.175C206.735 775.882 207.185 775.692 207.526 775.311C207.879 774.931 208.062 774.422 208.074 773.784V769.553C208.074 768.915 207.897 768.406 207.544 768.025C207.203 767.645 206.741 767.455 206.156 767.455H203.965C203.904 767.455 203.873 767.486 203.873 767.547V775.79Z" stroke="black" stroke-opacity="0.31" stroke-width="2" mask="url(#path-3-outside-1_347_35)"/>
<path d="M226.157 765.45C226.157 765.388 226.175 765.339 226.211 765.302C226.26 765.253 226.315 765.229 226.376 765.229H228.056C228.117 765.229 228.165 765.253 228.202 765.302C228.251 765.339 228.275 765.388 228.275 765.45V777.887C228.275 777.949 228.251 778.004 228.202 778.053C228.165 778.09 228.117 778.108 228.056 778.108H226.376C226.315 778.108 226.26 778.09 226.211 778.053C226.175 778.004 226.157 777.949 226.157 777.887V772.625C226.157 772.564 226.126 772.533 226.065 772.533H221.408C221.347 772.533 221.317 772.564 221.317 772.625V777.887C221.317 777.949 221.293 778.004 221.244 778.053C221.207 778.09 221.159 778.108 221.098 778.108H219.418C219.357 778.108 219.302 778.09 219.253 778.053C219.217 778.004 219.199 777.949 219.199 777.887V765.45C219.199 765.388 219.217 765.339 219.253 765.302C219.302 765.253 219.357 765.229 219.418 765.229H221.098C221.159 765.229 221.207 765.253 221.244 765.302C221.293 765.339 221.317 765.388 221.317 765.45V770.601C221.317 770.663 221.347 770.693 221.408 770.693H226.065C226.126 770.693 226.157 770.663 226.157 770.601V765.45Z" stroke="black" stroke-opacity="0.31" stroke-width="2" mask="url(#path-3-outside-1_347_35)"/>
<path d="M241.547 778.292C240.633 778.292 239.824 778.108 239.118 777.74C238.411 777.36 237.864 776.826 237.474 776.139C237.097 775.452 236.908 774.661 236.908 773.766V769.571C236.908 768.688 237.103 767.909 237.492 767.234C237.882 766.547 238.424 766.02 239.118 765.652C239.824 765.272 240.633 765.082 241.547 765.082C242.472 765.082 243.281 765.272 243.975 765.652C244.682 766.02 245.229 766.547 245.619 767.234C246.009 767.909 246.203 768.688 246.203 769.571V773.766C246.203 774.661 246.009 775.452 245.619 776.139C245.229 776.826 244.682 777.36 243.975 777.74C243.281 778.108 242.472 778.292 241.547 778.292ZM241.547 776.452C242.314 776.452 242.928 776.213 243.391 775.735C243.854 775.256 244.085 774.624 244.085 773.839V769.553C244.085 768.755 243.854 768.117 243.391 767.639C242.928 767.161 242.314 766.921 241.547 766.921C240.792 766.921 240.183 767.161 239.72 767.639C239.258 768.117 239.026 768.755 239.026 769.553V773.839C239.026 774.624 239.258 775.256 239.72 775.735C240.183 776.213 240.792 776.452 241.547 776.452Z" stroke="black" stroke-opacity="0.31" stroke-width="2" mask="url(#path-3-outside-1_347_35)"/>
<path d="M260.085 765.21C260.852 765.21 261.527 765.37 262.112 765.689C262.696 766.008 263.146 766.461 263.463 767.05C263.792 767.627 263.956 768.295 263.956 769.056C263.956 769.804 263.792 770.466 263.463 771.043C263.134 771.619 262.666 772.067 262.057 772.386C261.46 772.693 260.766 772.846 259.975 772.846H257.053C256.992 772.846 256.962 772.877 256.962 772.938V777.887C256.962 777.949 256.937 778.004 256.889 778.053C256.852 778.09 256.803 778.108 256.743 778.108H255.062C255.001 778.108 254.947 778.09 254.898 778.053C254.861 778.004 254.843 777.949 254.843 777.887V765.431C254.843 765.37 254.861 765.321 254.898 765.284C254.947 765.235 255.001 765.21 255.062 765.21H260.085ZM259.774 771.116C260.395 771.116 260.894 770.932 261.272 770.564C261.649 770.196 261.838 769.712 261.838 769.111C261.838 768.498 261.649 768.001 261.272 767.621C260.894 767.24 260.395 767.05 259.774 767.05H257.053C256.992 767.05 256.962 767.081 256.962 767.142V771.024C256.962 771.086 256.992 771.116 257.053 771.116H259.774Z" stroke="black" stroke-opacity="0.31" stroke-width="2" mask="url(#path-3-outside-1_347_35)"/>
<path d="M280.862 766.848C280.862 766.909 280.838 766.964 280.789 767.013C280.752 767.05 280.704 767.069 280.643 767.069H274.415C274.355 767.069 274.324 767.099 274.324 767.161V770.601C274.324 770.663 274.355 770.693 274.415 770.693H278.598C278.658 770.693 278.707 770.718 278.744 770.767C278.792 770.804 278.817 770.853 278.817 770.914V772.312C278.817 772.374 278.792 772.429 278.744 772.478C278.707 772.515 278.658 772.533 278.598 772.533H274.415C274.355 772.533 274.324 772.564 274.324 772.625V776.176C274.324 776.237 274.355 776.268 274.415 776.268H280.643C280.704 776.268 280.752 776.293 280.789 776.342C280.838 776.379 280.862 776.428 280.862 776.489V777.887C280.862 777.949 280.838 778.004 280.789 778.053C280.752 778.09 280.704 778.108 280.643 778.108H272.425C272.364 778.108 272.309 778.09 272.26 778.053C272.224 778.004 272.206 777.949 272.206 777.887V765.45C272.206 765.388 272.224 765.339 272.26 765.302C272.309 765.253 272.364 765.229 272.425 765.229H280.643C280.704 765.229 280.752 765.253 280.789 765.302C280.838 765.339 280.862 765.388 280.862 765.45V766.848Z" stroke="black" stroke-opacity="0.31" stroke-width="2" mask="url(#path-3-outside-1_347_35)"/>
<path d="M151.721 797C150.583 797 149.682 796.745 149.02 796.234C148.358 795.712 148.026 795.019 148.026 794.154V793.638C148.026 793.533 148.078 793.481 148.182 793.481H148.663C148.766 793.481 148.818 793.533 148.818 793.638V794.107C148.818 794.753 149.082 795.274 149.61 795.671C150.138 796.067 150.862 796.265 151.783 796.265C152.642 796.265 153.299 796.088 153.754 795.733C154.21 795.368 154.437 794.868 154.437 794.232C154.437 793.846 154.334 793.512 154.127 793.231C153.93 792.939 153.62 792.668 153.196 792.418C152.782 792.168 152.192 791.881 151.426 791.558C150.619 791.214 150.008 790.927 149.594 790.697C149.191 790.468 148.865 790.181 148.616 789.837C148.368 789.483 148.244 789.029 148.244 788.477C148.244 787.622 148.534 786.965 149.113 786.506C149.703 786.037 150.515 785.802 151.55 785.802C152.678 785.802 153.563 786.063 154.205 786.584C154.846 787.106 155.167 787.804 155.167 788.68V789.04C155.167 789.144 155.115 789.196 155.012 789.196H154.5C154.396 789.196 154.344 789.144 154.344 789.04V788.727C154.344 788.07 154.096 787.544 153.599 787.147C153.102 786.741 152.404 786.537 151.504 786.537C150.717 786.537 150.112 786.704 149.687 787.038C149.263 787.361 149.051 787.83 149.051 788.445C149.051 788.862 149.149 789.201 149.346 789.462C149.543 789.723 149.822 789.952 150.184 790.15C150.557 790.338 151.126 790.588 151.892 790.901C152.658 791.214 153.273 791.516 153.739 791.808C154.215 792.089 154.588 792.423 154.857 792.809C155.126 793.194 155.26 793.658 155.26 794.201C155.26 795.045 154.95 795.723 154.329 796.234C153.708 796.745 152.839 797 151.721 797Z" stroke="black" stroke-opacity="0.31" stroke-width="2" mask="url(#path-3-outside-1_347_35)"/>
<path d="M165.739 797C165.025 797 164.393 796.859 163.845 796.578C163.307 796.286 162.888 795.879 162.588 795.358C162.287 794.837 162.137 794.237 162.137 793.559V786.084C162.137 785.98 162.189 785.928 162.293 785.928H162.805C162.908 785.928 162.96 785.98 162.96 786.084V793.591C162.96 794.393 163.214 795.04 163.721 795.53C164.238 796.02 164.911 796.265 165.739 796.265C166.577 796.265 167.25 796.02 167.757 795.53C168.264 795.04 168.517 794.393 168.517 793.591V786.084C168.517 785.98 168.569 785.928 168.673 785.928H169.185C169.288 785.928 169.34 785.98 169.34 786.084V793.559C169.34 794.237 169.19 794.837 168.89 795.358C168.59 795.879 168.165 796.286 167.617 796.578C167.079 796.859 166.453 797 165.739 797Z" stroke="black" stroke-opacity="0.31" stroke-width="2" mask="url(#path-3-outside-1_347_35)"/>
<path d="M183.347 796.875C183.254 796.875 183.192 796.838 183.16 796.765L180.785 791.792C180.775 791.761 180.754 791.745 180.723 791.745H177.789C177.748 791.745 177.727 791.766 177.727 791.808V796.718C177.727 796.823 177.676 796.875 177.572 796.875H177.06C176.956 796.875 176.905 796.823 176.905 796.718V786.084C176.905 785.98 176.956 785.928 177.06 785.928H180.972C181.841 785.928 182.54 786.199 183.067 786.741C183.605 787.283 183.875 787.992 183.875 788.868C183.875 789.608 183.673 790.233 183.269 790.744C182.866 791.245 182.322 791.558 181.639 791.683C181.587 791.704 181.572 791.73 181.593 791.761L183.968 796.687C183.978 796.708 183.983 796.734 183.983 796.765C183.983 796.838 183.942 796.875 183.859 796.875H183.347ZM177.789 786.663C177.748 786.663 177.727 786.683 177.727 786.725V790.995C177.727 791.036 177.748 791.057 177.789 791.057H180.894C181.536 791.057 182.053 790.854 182.446 790.447C182.85 790.041 183.052 789.514 183.052 788.868C183.052 788.211 182.85 787.679 182.446 787.272C182.053 786.866 181.536 786.663 180.894 786.663H177.789Z" stroke="black" stroke-opacity="0.31" stroke-width="2" mask="url(#path-3-outside-1_347_35)"/>
<path d="M197.819 786.506C197.819 786.61 197.767 786.663 197.664 786.663H191.796C191.755 786.663 191.734 786.683 191.734 786.725V790.948C191.734 790.989 191.755 791.01 191.796 791.01H195.956C196.06 791.01 196.111 791.062 196.111 791.167V791.589C196.111 791.693 196.06 791.745 195.956 791.745H191.796C191.755 791.745 191.734 791.766 191.734 791.808V796.718C191.734 796.823 191.682 796.875 191.579 796.875H191.066C190.963 796.875 190.911 796.823 190.911 796.718V786.084C190.911 785.98 190.963 785.928 191.066 785.928H197.664C197.767 785.928 197.819 785.98 197.819 786.084V786.506Z" stroke="black" stroke-opacity="0.31" stroke-width="2" mask="url(#path-3-outside-1_347_35)"/>
<path d="M209.481 791.167C209.461 791.177 209.45 791.187 209.45 791.198C209.45 791.208 209.461 791.219 209.481 791.229C210.04 791.469 210.47 791.818 210.77 792.277C211.08 792.736 211.236 793.283 211.236 793.919C211.236 794.837 210.946 795.561 210.366 796.093C209.797 796.614 209.042 796.875 208.1 796.875H204.421C204.318 796.875 204.266 796.823 204.266 796.718V786.084C204.266 785.98 204.318 785.928 204.421 785.928H207.991C208.954 785.928 209.714 786.178 210.273 786.678C210.832 787.179 211.111 787.872 211.111 788.758C211.111 789.342 210.972 789.837 210.692 790.244C210.413 790.651 210.009 790.958 209.481 791.167ZM205.151 786.663C205.109 786.663 205.088 786.683 205.088 786.725V790.823C205.088 790.864 205.109 790.885 205.151 790.885H207.991C208.695 790.885 209.254 790.697 209.668 790.322C210.092 789.936 210.304 789.431 210.304 788.805C210.304 788.159 210.092 787.643 209.668 787.257C209.254 786.861 208.695 786.663 207.991 786.663H205.151ZM208.1 796.124C208.804 796.124 209.362 795.921 209.776 795.514C210.201 795.097 210.413 794.55 210.413 793.872C210.413 793.174 210.196 792.621 209.761 792.214C209.326 791.797 208.747 791.589 208.022 791.589H205.151C205.109 791.589 205.088 791.61 205.088 791.651V796.062C205.088 796.103 205.109 796.124 205.151 796.124H208.1Z" stroke="black" stroke-opacity="0.31" stroke-width="2" mask="url(#path-3-outside-1_347_35)"/>
<path d="M221.728 797C221.014 797 220.383 796.854 219.835 796.562C219.296 796.26 218.877 795.843 218.577 795.311C218.287 794.769 218.143 794.148 218.143 793.45V789.352C218.143 788.654 218.287 788.039 218.577 787.507C218.877 786.965 219.296 786.548 219.835 786.256C220.383 785.954 221.014 785.802 221.728 785.802C222.442 785.802 223.074 785.954 223.622 786.256C224.171 786.548 224.595 786.965 224.895 787.507C225.195 788.039 225.345 788.654 225.345 789.352V793.45C225.345 794.148 225.195 794.769 224.895 795.311C224.595 795.843 224.171 796.26 223.622 796.562C223.074 796.854 222.442 797 221.728 797ZM221.728 796.281C222.567 796.281 223.239 796.025 223.746 795.514C224.264 795.003 224.523 794.326 224.523 793.481V789.337C224.523 788.503 224.264 787.83 223.746 787.319C223.239 786.798 222.567 786.537 221.728 786.537C220.9 786.537 220.233 786.798 219.726 787.319C219.219 787.83 218.965 788.503 218.965 789.337V793.481C218.965 794.326 219.219 795.003 219.726 795.514C220.233 796.025 220.9 796.281 221.728 796.281Z" stroke="black" stroke-opacity="0.31" stroke-width="2" mask="url(#path-3-outside-1_347_35)"/>
<path d="M239.037 796.875C238.943 796.875 238.881 796.833 238.85 796.75L238.183 794.67C238.172 794.639 238.152 794.623 238.121 794.623H233.277C233.246 794.623 233.226 794.639 233.215 794.67L232.563 796.75C232.532 796.833 232.47 796.875 232.377 796.875H231.834C231.72 796.875 231.679 796.818 231.71 796.703L235.156 786.053C235.187 785.969 235.249 785.928 235.342 785.928H236.041C236.134 785.928 236.196 785.969 236.227 786.053L239.688 796.703L239.704 796.765C239.704 796.838 239.657 796.875 239.564 796.875H239.037ZM233.464 793.857C233.453 793.877 233.453 793.898 233.464 793.919C233.484 793.93 233.505 793.935 233.526 793.935H237.872C237.893 793.935 237.909 793.93 237.919 793.919C237.94 793.898 237.945 793.877 237.934 793.857L235.746 787.054C235.735 787.033 235.72 787.022 235.699 787.022C235.678 787.022 235.663 787.033 235.653 787.054L233.464 793.857Z" stroke="black" stroke-opacity="0.31" stroke-width="2" mask="url(#path-3-outside-1_347_35)"/>
<path d="M252.803 796.875C252.71 796.875 252.648 796.838 252.617 796.765L250.242 791.792C250.231 791.761 250.211 791.745 250.18 791.745H247.246C247.204 791.745 247.184 791.766 247.184 791.808V796.718C247.184 796.823 247.132 796.875 247.028 796.875H246.516C246.413 796.875 246.361 796.823 246.361 796.718V786.084C246.361 785.98 246.413 785.928 246.516 785.928H250.428C251.297 785.928 251.996 786.199 252.524 786.741C253.062 787.283 253.331 787.992 253.331 788.868C253.331 789.608 253.129 790.233 252.725 790.744C252.322 791.245 251.778 791.558 251.095 791.683C251.044 791.704 251.028 791.73 251.049 791.761L253.424 796.687C253.434 796.708 253.439 796.734 253.439 796.765C253.439 796.838 253.398 796.875 253.315 796.875H252.803ZM247.246 786.663C247.204 786.663 247.184 786.683 247.184 786.725V790.995C247.184 791.036 247.204 791.057 247.246 791.057H250.35C250.992 791.057 251.509 790.854 251.903 790.447C252.306 790.041 252.508 789.514 252.508 788.868C252.508 788.211 252.306 787.679 251.903 787.272C251.509 786.866 250.992 786.663 250.35 786.663H247.246Z" stroke="black" stroke-opacity="0.31" stroke-width="2" mask="url(#path-3-outside-1_347_35)"/>
<path d="M260.523 796.875C260.419 796.875 260.367 796.823 260.367 796.718V786.084C260.367 785.98 260.419 785.928 260.523 785.928H264.124C265.117 785.928 265.904 786.193 266.483 786.725C267.063 787.246 267.353 787.961 267.353 788.868V793.935C267.353 794.842 267.063 795.561 266.483 796.093C265.904 796.614 265.117 796.875 264.124 796.875H260.523ZM261.19 796.077C261.19 796.119 261.211 796.14 261.252 796.14H264.171C264.895 796.14 265.464 795.937 265.878 795.53C266.302 795.113 266.52 794.55 266.53 793.841V788.962C266.53 788.253 266.318 787.695 265.894 787.288C265.48 786.871 264.905 786.663 264.171 786.663H261.252C261.211 786.663 261.19 786.683 261.19 786.725V796.077Z" stroke="black" stroke-opacity="0.31" stroke-width="2" mask="url(#path-3-outside-1_347_35)"/>
<path d="M277.461 797C276.322 797 275.422 796.745 274.76 796.234C274.097 795.712 273.766 795.019 273.766 794.154V793.638C273.766 793.533 273.818 793.481 273.922 793.481H274.403C274.506 793.481 274.558 793.533 274.558 793.638V794.107C274.558 794.753 274.822 795.274 275.35 795.671C275.877 796.067 276.602 796.265 277.523 796.265C278.382 796.265 279.039 796.088 279.494 795.733C279.95 795.368 280.177 794.868 280.177 794.232C280.177 793.846 280.074 793.512 279.867 793.231C279.67 792.939 279.36 792.668 278.935 792.418C278.521 792.168 277.932 791.881 277.166 791.558C276.359 791.214 275.748 790.927 275.334 790.697C274.931 790.468 274.605 790.181 274.356 789.837C274.108 789.483 273.984 789.029 273.984 788.477C273.984 787.622 274.273 786.965 274.853 786.506C275.443 786.037 276.255 785.802 277.29 785.802C278.418 785.802 279.303 786.063 279.944 786.584C280.586 787.106 280.907 787.804 280.907 788.68V789.04C280.907 789.144 280.855 789.196 280.752 789.196H280.239C280.136 789.196 280.084 789.144 280.084 789.04V788.727C280.084 788.07 279.836 787.544 279.339 787.147C278.842 786.741 278.144 786.537 277.243 786.537C276.457 786.537 275.852 786.704 275.427 787.038C275.003 787.361 274.791 787.83 274.791 788.445C274.791 788.862 274.889 789.201 275.086 789.462C275.282 789.723 275.562 789.952 275.924 790.15C276.297 790.338 276.866 790.588 277.632 790.901C278.397 791.214 279.013 791.516 279.479 791.808C279.955 792.089 280.327 792.423 280.596 792.809C280.865 793.194 281 793.658 281 794.201C281 795.045 280.69 795.723 280.069 796.234C279.448 796.745 278.578 797 277.461 797Z" stroke="black" stroke-opacity="0.31" stroke-width="2" mask="url(#path-3-outside-1_347_35)"/>
<path d="M185.835 32.6718C142.366 45.2946 109.02 82.1449 85.5978 142.816C55.2287 220.996 39.7465 352.518 27.6386 629.406C24.0658 709.418 24.0658 1075.89 27.6386 1146.53C37.5631 1346.87 46.0982 1451.11 62.9699 1578.15C83.0174 1730.44 112.989 1856.47 143.954 1921.21C164.398 1963.56 168.17 1966 211.639 1966C229.106 1966 245.779 1965.39 248.757 1964.37C262.453 1960.5 276.347 1941.16 290.837 1905.33C367.255 1718.63 411.717 1272.36 403.381 777.011C398.617 501.141 383.532 299.583 360.507 202.672C344.032 134.672 317.831 82.145 287.462 57.1029C274.759 46.7196 256.696 36.9471 240.619 32.0609C226.526 27.7854 201.119 27.9891 185.835 32.6718Z" fill="url(#paint0_linear_347_35)"/>
<path d="M215 1166.72C215 1166.99 214.867 1167.12 214.6 1167.12L187.4 1167.12C187.133 1167.12 187 1166.99 187 1166.72L187 1160.56C187 1158.51 187.68 1156.87 189.04 1155.64C190.373 1154.41 192.173 1153.8 194.44 1153.8L207.56 1153.8C209.827 1153.8 211.64 1154.41 213 1155.64C214.333 1156.87 215 1158.51 215 1160.56L215 1166.72ZM212.36 1164.28C212.467 1164.28 212.52 1164.23 212.52 1164.12L212.48 1160.6C212.48 1159.43 212.027 1158.49 211.12 1157.8C210.213 1157.08 208.987 1156.71 207.44 1156.68L194.56 1156.68C192.987 1156.68 191.747 1157.03 190.84 1157.72C189.933 1158.41 189.48 1159.37 189.48 1160.6L189.48 1164.12C189.48 1164.23 189.533 1164.28 189.64 1164.28L212.36 1164.28ZM194.56 1142.53C194.56 1141.86 194.707 1141.29 195 1140.81C195.107 1140.62 195.28 1140.55 195.52 1140.61L197.6 1141.09C197.84 1141.11 197.92 1141.27 197.84 1141.57C197.68 1141.89 197.6 1142.29 197.6 1142.77C197.6 1142.98 197.613 1143.14 197.64 1143.25C197.693 1144.21 198.2 1144.99 199.16 1145.61C200.093 1146.22 201.24 1146.53 202.6 1146.53L214.6 1146.53C214.867 1146.53 215 1146.66 215 1146.93L215 1148.97C215 1149.23 214.867 1149.37 214.6 1149.37L195.16 1149.37C194.893 1149.37 194.76 1149.23 194.76 1148.97L194.76 1146.93C194.76 1146.66 194.893 1146.53 195.16 1146.53L197.56 1146.53C197.64 1146.53 197.68 1146.51 197.68 1146.49C197.68 1146.43 197.653 1146.38 197.6 1146.33C195.573 1145.55 194.56 1144.29 194.56 1142.53ZM191.08 1136.37C191.08 1137.03 190.867 1137.58 190.44 1138.01C190.013 1138.41 189.48 1138.61 188.84 1138.61C188.173 1138.61 187.64 1138.41 187.24 1138.01C186.813 1137.58 186.6 1137.03 186.6 1136.37C186.6 1135.73 186.813 1135.21 187.24 1134.81C187.64 1134.38 188.173 1134.17 188.84 1134.17C189.48 1134.17 190.013 1134.38 190.44 1134.81C190.867 1135.21 191.08 1135.73 191.08 1136.37ZM215 1137.37C215 1137.63 214.867 1137.77 214.6 1137.77L195.16 1137.77C194.893 1137.77 194.76 1137.63 194.76 1137.37L194.76 1135.33C194.76 1135.06 194.893 1134.93 195.16 1134.93L214.6 1134.93C214.867 1134.93 215 1135.06 215 1135.33L215 1137.37ZM215 1126.21C215 1126.45 214.88 1126.59 214.64 1126.65L195.2 1131.61L195.04 1131.65C194.853 1131.65 194.76 1131.53 194.76 1131.29L194.76 1128.97C194.76 1128.73 194.88 1128.58 195.12 1128.53L210.28 1125.09C210.36 1125.06 210.4 1125.03 210.4 1125.01C210.4 1124.98 210.36 1124.95 210.28 1124.93L195.12 1121.53C194.88 1121.47 194.76 1121.33 194.76 1121.09L194.8 1118.77C194.8 1118.63 194.84 1118.54 194.92 1118.49C195 1118.41 195.107 1118.39 195.24 1118.45L214.64 1123.37C214.88 1123.39 215 1123.54 215 1123.81L215 1126.21ZM205.56 1103.6C205.827 1103.6 205.96 1103.74 205.96 1104L205.96 1113.12C205.96 1113.23 206.013 1113.28 206.12 1113.28L209.04 1113.28C210.16 1113.28 211.08 1112.98 211.8 1112.36C212.493 1111.72 212.84 1110.9 212.84 1109.88C212.84 1109.03 212.587 1108.31 212.08 1107.72C211.547 1107.11 210.867 1106.71 210.04 1106.52C209.8 1106.44 209.68 1106.3 209.68 1106.08L209.76 1104.08C209.76 1103.98 209.8 1103.88 209.88 1103.8C209.96 1103.72 210.067 1103.7 210.2 1103.72C211.773 1103.94 213.027 1104.59 213.96 1105.68C214.867 1106.75 215.32 1108.15 215.32 1109.88C215.32 1111.78 214.76 1113.3 213.64 1114.44C212.52 1115.56 211.04 1116.12 209.2 1116.12L200.56 1116.12C198.747 1116.12 197.28 1115.56 196.16 1114.44C195.013 1113.3 194.44 1111.78 194.44 1109.88C194.44 1107.96 195.013 1106.44 196.16 1105.32C197.28 1104.18 198.747 1103.6 200.56 1103.6L205.56 1103.6ZM196.92 1109.88C196.92 1110.9 197.28 1111.72 198 1112.36C198.693 1112.98 199.613 1113.28 200.76 1113.28L203.44 1113.28C203.547 1113.28 203.6 1113.23 203.6 1113.12L203.6 1106.56C203.6 1106.46 203.547 1106.4 203.44 1106.4L200.76 1106.4C199.613 1106.4 198.693 1106.72 198 1107.36C197.28 1108 196.92 1108.84 196.92 1109.88ZM194.44 1092.91C194.44 1091.23 195 1089.89 196.12 1088.87C197.213 1087.83 198.693 1087.31 200.56 1087.31L209.2 1087.31C211.013 1087.31 212.493 1087.82 213.64 1088.83C214.76 1089.85 215.32 1091.21 215.32 1092.91C215.32 1093.63 215.187 1094.33 214.92 1094.99C214.627 1095.66 214.2 1096.25 213.64 1096.75C213.587 1096.81 213.573 1096.86 213.6 1096.91C213.627 1096.94 213.667 1096.95 213.72 1096.95L214.6 1096.95C214.867 1096.95 215 1097.09 215 1097.35L215 1099.39C215 1099.66 214.867 1099.79 214.6 1099.79L187.4 1099.79C187.133 1099.79 187 1099.66 187 1099.39L187 1097.35C187 1097.09 187.133 1096.95 187.4 1096.95L196.04 1096.95C196.093 1096.95 196.133 1096.93 196.16 1096.87C196.187 1096.82 196.16 1096.77 196.08 1096.71C195.547 1096.23 195.147 1095.66 194.88 1094.99C194.587 1094.33 194.44 1093.63 194.44 1092.91ZM200.76 1090.15C199.613 1090.15 198.693 1090.47 198 1091.11C197.28 1091.75 196.92 1092.59 196.92 1093.63C196.92 1094.62 197.28 1095.42 198 1096.03C198.693 1096.65 199.613 1096.95 200.76 1096.95L209.04 1096.95C210.16 1096.95 211.08 1096.65 211.8 1096.03C212.493 1095.42 212.84 1094.62 212.84 1093.63C212.84 1092.59 212.493 1091.75 211.8 1091.11C211.08 1090.47 210.16 1090.15 209.04 1090.15L200.76 1090.15ZM223 1084.08C223 1084.13 222.96 1084.18 222.88 1084.24C222.8 1084.29 222.707 1084.32 222.6 1084.32L221 1084.32C220.733 1084.32 220.6 1084.18 220.6 1083.92C220.573 1083.09 220.413 1082.45 220.12 1082C219.827 1081.52 219.307 1081.13 218.56 1080.84C217.813 1080.54 216.667 1080.25 215.12 1079.96C215.067 1079.93 215.027 1079.93 215 1079.96C214.947 1079.96 214.907 1079.96 214.88 1079.96L195.2 1085.04L195.08 1085.08C194.867 1085.08 194.76 1084.94 194.76 1084.68L194.76 1082.52C194.76 1082.25 194.88 1082.1 195.12 1082.08L210.84 1078.56C210.92 1078.53 210.96 1078.5 210.96 1078.48C210.96 1078.45 210.92 1078.42 210.84 1078.4L195.12 1074.92C194.88 1074.86 194.76 1074.72 194.76 1074.48L194.8 1072.24C194.8 1072.1 194.84 1072.01 194.92 1071.96C195 1071.88 195.107 1071.86 195.24 1071.92L216.76 1077.48C218.547 1077.96 219.867 1078.44 220.72 1078.92C221.573 1079.37 222.16 1079.97 222.48 1080.72C222.827 1081.46 223 1082.52 223 1083.88L223 1084.08Z" fill="black"/>
<path d="M174.604 775.176C173.548 775.176 172.609 774.971 171.788 774.56C170.981 774.135 170.35 773.541 169.896 772.778C169.456 772.001 169.236 771.113 169.236 770.116V764.484C169.236 763.472 169.456 762.585 169.896 761.822C170.35 761.059 170.981 760.473 171.788 760.062C172.609 759.637 173.548 759.424 174.604 759.424C175.66 759.424 176.591 759.629 177.398 760.04C178.204 760.451 178.828 761.023 179.268 761.756C179.722 762.475 179.95 763.289 179.95 764.198V764.44C179.95 764.587 179.876 764.66 179.73 764.66H178.058C177.911 764.66 177.838 764.587 177.838 764.44V764.242C177.838 763.362 177.537 762.651 176.936 762.108C176.349 761.551 175.572 761.272 174.604 761.272C173.621 761.272 172.829 761.558 172.228 762.13C171.641 762.702 171.348 763.465 171.348 764.418V770.182C171.348 771.135 171.656 771.898 172.272 772.47C172.888 773.042 173.694 773.328 174.692 773.328C175.66 773.328 176.422 773.079 176.98 772.58C177.552 772.067 177.838 771.37 177.838 770.49V768.796C177.838 768.737 177.808 768.708 177.75 768.708H174.78C174.633 768.708 174.56 768.635 174.56 768.488V767.124C174.56 766.977 174.633 766.904 174.78 766.904H179.73C179.876 766.904 179.95 766.977 179.95 767.124V769.918C179.95 771.605 179.466 772.903 178.498 773.812C177.544 774.721 176.246 775.176 174.604 775.176ZM187.942 775.198C186.871 775.198 185.925 774.978 185.104 774.538C184.282 774.098 183.644 773.482 183.19 772.69C182.735 771.883 182.508 770.959 182.508 769.918V764.682C182.508 763.641 182.735 762.724 183.19 761.932C183.644 761.14 184.282 760.524 185.104 760.084C185.925 759.644 186.871 759.424 187.942 759.424C189.027 759.424 189.98 759.644 190.802 760.084C191.623 760.524 192.261 761.14 192.716 761.932C193.17 762.724 193.398 763.641 193.398 764.682V769.918C193.398 770.959 193.17 771.883 192.716 772.69C192.261 773.482 191.623 774.098 190.802 774.538C189.98 774.978 189.027 775.198 187.942 775.198ZM187.942 773.372C188.939 773.372 189.746 773.064 190.362 772.448C190.978 771.832 191.286 771.018 191.286 770.006V764.66C191.286 763.633 190.978 762.812 190.362 762.196C189.746 761.565 188.939 761.25 187.942 761.25C186.944 761.25 186.138 761.565 185.522 762.196C184.92 762.812 184.62 763.633 184.62 764.66V770.006C184.62 771.018 184.92 771.832 185.522 772.448C186.138 773.064 186.944 773.372 187.942 773.372ZM201.407 775.198C200.337 775.198 199.391 774.978 198.569 774.538C197.748 774.098 197.11 773.482 196.655 772.69C196.201 771.883 195.973 770.959 195.973 769.918V764.682C195.973 763.641 196.201 762.724 196.655 761.932C197.11 761.14 197.748 760.524 198.569 760.084C199.391 759.644 200.337 759.424 201.407 759.424C202.493 759.424 203.446 759.644 204.267 760.084C205.089 760.524 205.727 761.14 206.181 761.932C206.636 762.724 206.863 763.641 206.863 764.682V769.918C206.863 770.959 206.636 771.883 206.181 772.69C205.727 773.482 205.089 774.098 204.267 774.538C203.446 774.978 202.493 775.198 201.407 775.198ZM201.407 773.372C202.405 773.372 203.211 773.064 203.827 772.448C204.443 771.832 204.751 771.018 204.751 770.006V764.66C204.751 763.633 204.443 762.812 203.827 762.196C203.211 761.565 202.405 761.25 201.407 761.25C200.41 761.25 199.603 761.565 198.987 762.196C198.386 762.812 198.085 763.633 198.085 764.66V770.006C198.085 771.018 198.386 771.832 198.987 772.448C199.603 773.064 200.41 773.372 201.407 773.372ZM210.077 775C209.93 775 209.857 774.927 209.857 774.78V759.82C209.857 759.673 209.93 759.6 210.077 759.6H215.401C216.926 759.6 218.144 760.003 219.053 760.81C219.962 761.602 220.417 762.665 220.417 764V770.6C220.417 771.935 219.962 773.005 219.053 773.812C218.144 774.604 216.926 775 215.401 775H210.077ZM211.969 773.086C211.969 773.145 211.998 773.174 212.057 773.174H215.489C216.34 773.174 217.014 772.917 217.513 772.404C218.026 771.876 218.29 771.172 218.305 770.292V764.308C218.305 763.428 218.048 762.731 217.535 762.218C217.036 761.69 216.354 761.426 215.489 761.426H212.057C211.998 761.426 211.969 761.455 211.969 761.514V773.086ZM231.794 759.82C231.794 759.673 231.868 759.6 232.014 759.6H233.686C233.833 759.6 233.906 759.673 233.906 759.82V774.78C233.906 774.927 233.833 775 233.686 775H232.014C231.868 775 231.794 774.927 231.794 774.78V768.246C231.794 768.187 231.765 768.158 231.706 768.158H225.436C225.378 768.158 225.348 768.187 225.348 768.246V774.78C225.348 774.927 225.275 775 225.128 775H223.456C223.31 775 223.236 774.927 223.236 774.78V759.82C223.236 759.673 223.31 759.6 223.456 759.6H225.128C225.275 759.6 225.348 759.673 225.348 759.82V766.244C225.348 766.303 225.378 766.332 225.436 766.332H231.706C231.765 766.332 231.794 766.303 231.794 766.244V759.82ZM242.212 775.198C241.142 775.198 240.196 774.978 239.374 774.538C238.553 774.098 237.915 773.482 237.46 772.69C237.006 771.883 236.778 770.959 236.778 769.918V764.682C236.778 763.641 237.006 762.724 237.46 761.932C237.915 761.14 238.553 760.524 239.374 760.084C240.196 759.644 241.142 759.424 242.212 759.424C243.298 759.424 244.251 759.644 245.072 760.084C245.894 760.524 246.532 761.14 246.986 761.932C247.441 762.724 247.668 763.641 247.668 764.682V769.918C247.668 770.959 247.441 771.883 246.986 772.69C246.532 773.482 245.894 774.098 245.072 774.538C244.251 774.978 243.298 775.198 242.212 775.198ZM242.212 773.372C243.21 773.372 244.016 773.064 244.632 772.448C245.248 771.832 245.556 771.018 245.556 770.006V764.66C245.556 763.633 245.248 762.812 244.632 762.196C244.016 761.565 243.21 761.25 242.212 761.25C241.215 761.25 240.408 761.565 239.792 762.196C239.191 762.812 238.89 763.633 238.89 764.66V770.006C238.89 771.018 239.191 771.832 239.792 772.448C240.408 773.064 241.215 773.372 242.212 773.372ZM256.69 759.578C257.584 759.578 258.369 759.769 259.044 760.15C259.733 760.517 260.261 761.037 260.628 761.712C261.009 762.387 261.2 763.164 261.2 764.044C261.2 764.924 261.009 765.694 260.628 766.354C260.246 767.014 259.704 767.527 259 767.894C258.31 768.261 257.511 768.444 256.602 768.444H252.73C252.671 768.444 252.642 768.473 252.642 768.532V774.78C252.642 774.927 252.568 775 252.422 775H250.75C250.603 775 250.53 774.927 250.53 774.78V759.798C250.53 759.651 250.603 759.578 250.75 759.578H256.69ZM256.404 766.728C257.21 766.728 257.856 766.486 258.34 766.002C258.838 765.518 259.088 764.88 259.088 764.088C259.088 763.281 258.838 762.636 258.34 762.152C257.856 761.653 257.21 761.404 256.404 761.404H252.73C252.671 761.404 252.642 761.433 252.642 761.492V766.64C252.642 766.699 252.671 766.728 252.73 766.728H256.404ZM273.713 761.206C273.713 761.353 273.639 761.426 273.493 761.426H265.683C265.624 761.426 265.595 761.455 265.595 761.514V766.244C265.595 766.303 265.624 766.332 265.683 766.332H271.051C271.197 766.332 271.271 766.405 271.271 766.552V767.938C271.271 768.085 271.197 768.158 271.051 768.158H265.683C265.624 768.158 265.595 768.187 265.595 768.246V773.086C265.595 773.145 265.624 773.174 265.683 773.174H273.493C273.639 773.174 273.713 773.247 273.713 773.394V774.78C273.713 774.927 273.639 775 273.493 775H263.703C263.556 775 263.483 774.927 263.483 774.78V759.82C263.483 759.673 263.556 759.6 263.703 759.6H273.493C273.639 759.6 273.713 759.673 273.713 759.82V761.206Z" fill="#2D3E55"/>
<path d="M187.824 746.024C180.144 746.024 173.957 743.848 169.264 739.496C164.656 735.059 162.352 729.171 162.352 721.832V678.568C162.352 671.229 164.656 665.384 169.264 661.032C173.957 656.595 180.144 654.376 187.824 654.376C195.504 654.376 201.691 656.595 206.384 661.032C211.077 665.469 213.424 671.357 213.424 678.696V683.56C213.424 683.987 213.253 684.371 212.912 684.712C212.656 684.968 212.315 685.096 211.888 685.096H196.912C196.485 685.096 196.101 684.968 195.76 684.712C195.504 684.371 195.376 683.987 195.376 683.56V678.44C195.376 675.88 194.693 673.832 193.328 672.296C191.963 670.675 190.128 669.864 187.824 669.864C185.605 669.864 183.813 670.675 182.448 672.296C181.083 673.832 180.4 675.88 180.4 678.44V721.96C180.4 724.52 181.083 726.611 182.448 728.232C183.813 729.768 185.605 730.536 187.824 730.536C190.128 730.536 191.963 729.768 193.328 728.232C194.693 726.611 195.376 724.52 195.376 721.96V711.72C195.376 711.293 195.163 711.08 194.736 711.08H189.104C188.677 711.08 188.293 710.952 187.952 710.696C187.696 710.355 187.568 709.971 187.568 709.544V698.152C187.568 697.725 187.696 697.384 187.952 697.128C188.293 696.787 188.677 696.616 189.104 696.616H211.888C212.315 696.616 212.656 696.787 212.912 697.128C213.253 697.384 213.424 697.725 213.424 698.152V721.832C213.424 729.171 211.077 735.059 206.384 739.496C201.691 743.848 195.504 746.024 187.824 746.024ZM249.11 656.936C249.11 656.509 249.238 656.168 249.494 655.912C249.835 655.571 250.219 655.4 250.646 655.4H265.622C266.049 655.4 266.39 655.571 266.646 655.912C266.987 656.168 267.158 656.509 267.158 656.936V743.464C267.158 743.891 266.987 744.275 266.646 744.616C266.39 744.872 266.049 745 265.622 745H250.646C250.219 745 249.835 744.872 249.494 744.616C249.238 744.275 249.11 743.891 249.11 743.464V708.52C249.11 708.093 248.897 707.88 248.47 707.88H235.67C235.243 707.88 235.03 708.093 235.03 708.52V743.464C235.03 743.891 234.859 744.275 234.518 744.616C234.262 744.872 233.921 745 233.494 745H218.518C218.091 745 217.707 744.872 217.366 744.616C217.11 744.275 216.982 743.891 216.982 743.464V656.936C216.982 656.509 217.11 656.168 217.366 655.912C217.707 655.571 218.091 655.4 218.518 655.4H233.494C233.921 655.4 234.262 655.571 234.518 655.912C234.859 656.168 235.03 656.509 235.03 656.936V691.752C235.03 692.179 235.243 692.392 235.67 692.392H248.47C248.897 692.392 249.11 692.179 249.11 691.752V656.936Z" fill="#2D3E55"/>
<rect x="209" y="1684" width="11" height="210.451" rx="5.5" fill="#D9D9D9"/>
<line x1="214.5" y1="1887.44" x2="214.5" y2="1694.52" stroke="black" stroke-opacity="0.16"/>
<defs>
<linearGradient id="paint0_linear_347_35" x1="214.669" y1="1966" x2="214.669" y2="29" gradientUnits="userSpaceOnUse">
<stop stop-color="white"/>
<stop offset="1" stop-color="white"/>
</linearGradient>
</defs>
</svg>
